<svg version="1.1" width="800" height="450" xmlns="http://www.w3.org/2000/svg">
<rect x="0" y="0" width="800" height="450" fill="#5f799c" />
<g transform="scale(0.78125, 0.78125)">
<path d="M 1039 402.222 L 335.113 388.664 L 515.562 521.92 L 1037.23 507.656 Z" fill="#424337" fill-opacity="1" />
<path d="M -9.99299 358.004 L 1039 551.338 L 1017.76 591 L -16 577.655 Z" fill="#7c6d5a" fill-opacity="1" />
<path d="M 892.189 397.083 L 885.119 289.547 L 732.42 158.831 L 657.879 375.839 Z" fill="#84afdd" fill-opacity="1" />
<path d="M 237.116 378.489 L 50.0932 130.708 L 639.935 135.449 L 642.954 384.48 Z" fill="#6296d5" fill-opacity="1" />
<path d="M 1017.72 127.469 L 1039 391.375 L 916.485 396.37 L 908.826 306.759 Z" fill="#8cb5e5" fill-opacity="1" />
<path d="M 877.249 -10.3186 L 896.81 -2.48839 L 916.219 476.216 L 886.04 323.045 Z" fill="#24262f" fill-opacity="1" />
<path d="M 283.535 570.269 L 272.05 399.056 L 296.775 403.309 L 311.245 591 Z" fill="#ece2cb" fill-opacity="1" />
<path d="M 153.945 481.047 L -16 560.946 L 89.4852 591 L 152.107 553.529 Z" fill="#37331f" fill-opacity="1" />
<path d="M 192.203 583.508 L 188.429 417.235 L 166.448 432.258 L 163.427 531.569 Z" fill="#c5b8a0" fill-opacity="1" />
<path d="M 193.761 480.619 L 196.241 591 L 282.143 591 L 278.305 547.198 Z" fill="#3c3023" fill-opacity="1" />
<path d="M 853.653 216.546 L 838.935 250.35 L 922.855 281.864 L 938.118 239.591 Z" fill="#252933" fill-opacity="1" />
<path d="M 923.616 577.411 L 899.589 591 L 888.831 357.101 L 892.468 237.468 Z" fill="#1c1a1b" fill-opacity="1" />
<path d="M 265.574 546.48 L 580.782 537.642 L 491.243 531.403 L 492.785 475.623 Z" fill="#baa17d" fill-opacity="1" />
<path d="M 203.522 264.836 L 653.606 377.416 L 232.457 386.568 L 154.898 370.099 Z" fill="#7eb0de" fill-opacity="1" />
<path d="M 409.504 439.496 L 346.311 447.913 L 341.383 408.797 L 330.334 400.557 Z" fill="#ddd7c7" fill-opacity="1" />
<path d="M 281.225 362.832 L 354.991 407.125 L 145.467 379.649 L 263.7 444.508 Z" fill="#4b4f3d" fill-opacity="1" />
<path d="M 22.8194 418.216 L 17.2625 404.207 L 89.1586 354.894 L 72.5822 472.995 Z" fill="#393a2b" fill-opacity="1" />
<path d="M 481.577 531.053 L 454.269 527.362 L 915.328 548.177 L 591.154 591 Z" fill="#bc8a7c" fill-opacity="1" />
<path d="M 1029.5 591 L 915.263 591 L 953.047 486.19 L 1023.03 494.339 Z" fill="#a3877a" fill-opacity="1" />
<path d="M 302.921 432.58 L 358.863 474.76 L 306.777 475.537 L 306.816 471.206 Z" fill="#d9ceb9" fill-opacity="1" />
<path d="M 708.371 298.697 L 709.105 416.234 L 659.36 357.615 L 661.936 282.069 Z" fill="#b3bcc4" fill-opacity="1" />
<path d="M 305.856 523.122 L 359.627 523.81 L 372.42 472.999 L 303.513 478.933 Z" fill="#3a2e23" fill-opacity="1" />
<path d="M 509.237 567.73 L 313.427 579.437 L 311.467 546.859 L 364.213 545.71 Z" fill="#413328" fill-opacity="1" />
<path d="M 60.2267 436.425 L -16 492.78 L 60.6818 515.978 L 41.2455 477.313 Z" fill="#bcae95" fill-opacity="1" />
<path d="M 43.6086 234.468 L 17.5881 265.725 L -16 313.745 L 171.032 255.779 Z" fill="#485b65" fill-opacity="1" />
<path d="M 642.821 388.111 L 661.307 409.248 L 660.533 227.276 L 640.702 241.344 Z" fill="#394a5e" fill-opacity="1" />
<path d="M 167.317 422.194 L 168.576 445.269 L 247.337 444.004 L 247.274 421.347 Z" fill="#c3baa8" fill-opacity="1" />
<path d="M 460.935 468.321 L 353.035 474.45 L 589.291 376.838 L 608.324 481.124 Z" fill="#3b382e" fill-opacity="1" />
<path d="M -16 208.061 L 883.385 214.428 L 876.484 -16 L -16 0.327152 Z" fill="#4775c0" fill-opacity="1" />
<path d="M 177.944 591 L 235.599 499.906 L 266.423 367.119 L 277.343 499.406 Z" fill="#3a342a" fill-opacity="1" />
<path d="M 75.9175 427.573 L 203.845 486.043 L 116.95 456.068 L 116.747 352.748 Z" fill="#b7b19f" fill-opacity="1" />
<path d="M 718.694 405.3 L 1008.54 435.069 L 784.247 493.32 L 762.571 515.65 Z" fill="#27291e" fill-opacity="1" />
<path d="M 70.1017 359.965 L 89.9992 297.186 L -13.9167 334.596 L 53.0267 376.403 Z" fill="#7aa0ca" fill-opacity="1" />
<path d="M 131.599 425.636 L 185.367 374.898 L 220.269 420.896 L 177.192 420.82 Z" fill="#3b3d29" fill-opacity="1" />
<path d="M 356.083 525.156 L 355.093 545.709 L 285.721 547.168 L 277.024 523.253 Z" fill="#ecdbb8" fill-opacity="1" />
<path d="M 166.433 328.936 L 175.441 292.201 L 148.714 252.259 L 116.71 240.026 Z" fill="#46524e" fill-opacity="1" />
<path d="M 205.605 443.118 L 282.968 485.607 L 103.282 483.01 L 179.433 502.556 Z" fill="#5b553e" fill-opacity="1" />
<path d="M 640.24 291.038 L 364.876 322.131 L 632.717 392.898 L 641.476 386.921 Z" fill="#81b5e4" fill-opacity="1" />
<path d="M 331.659 409.296 L 295.23 389.555 L 300.608 437.952 L 325.641 436.445 Z" fill="#41412a" fill-opacity="1" />
<path d="M 888.348 386.047 L 887.324 293.101 L 807.148 329.385 L 790.663 403.349 Z" fill="#9bc0e4" fill-opacity="1" />
<path d="M 907.379 226.324 L 1039 226.793 L 1025.62 -16 L 899.766 -4.69874 Z" fill="#5786ce" fill-opacity="1" />
<path d="M 798.647 511.836 L 773.85 461.685 L 756.824 500.478 L 512.617 523.676 Z" fill="#434d2d" fill-opacity="1" />
<path d="M 978.399 469.005 L 974.984 463.179 L 1039 460.066 L 1037.07 469.915 Z" fill="#a9a199" fill-opacity="1" />
<path d="M 161.614 369.279 L 90.9432 377.407 L 74.6028 351.425 L 146.429 341.841 Z" fill="#505d5c" fill-opacity="1" />
<path d="M 708.132 289.097 L 674.908 152.253 L 659.39 199.705 L 663.333 293.578 Z" fill="#7b848e" fill-opacity="1" />
<path d="M 837.122 253.216 L 878.098 130.715 L 678.366 167.596 L 711.487 275.3 Z" fill="#5b90d6" fill-opacity="1" />
<path d="M 713.848 585.74 L 849.797 489.121 L 808.54 482.324 L 910.834 584.336 Z" fill="#ab7f74" fill-opacity="1" />
<path d="M 115.528 462.66 L 95.3799 436.234 L 65.534 437.962 L 43.9551 485.123 Z" fill="#4a3e2f" fill-opacity="1" />
<path d="M 858.571 537.86 L 760.706 521.451 L 826.458 518.651 L 912.678 526.014 Z" fill="#544b43" fill-opacity="1" />
<path d="M 469.502 535.301 L 505.538 562.29 L 583.658 591 L 518.894 551.489 Z" fill="#3e362e" fill-opacity="1" />
</g>
</svg>
