<svg version="1.1" width="800" height="450" xmlns="http://www.w3.org/2000/svg">
<rect x="0" y="0" width="800" height="450" fill="#5f799c" />
<g transform="scale(0.78125, 0.78125)">
<path d="M 1039 402.222 L 335.113 388.664 L 515.562 521.92 L 1037.23 507.656 Z" fill="#424337" fill-opacity="1" />
<path d="M -9.99299 358.004 L 1039 551.338 L 1017.76 591 L -16 577.655 Z" fill="#7c6d5a" fill-opacity="1" />
<path d="M 892.189 397.083 L 885.119 289.547 L 732.42 158.831 L 657.879 375.839 Z" fill="#84afdd" fill-opacity="1" />
<path d="M 237.116 378.489 L 50.0932 130.708 L 639.935 135.449 L 642.954 384.48 Z" fill="#6296d5" fill-opacity="1" />
<path d="M 1017.72 127.469 L 1039 391.375 L 916.485 396.37 L 908.826 306.759 Z" fill="#8cb5e5" fill-opacity="1" />
<path d="M 877.249 -10.3186 L 896.81 -2.48839 L 916.219 476.216 L 886.04 323.045 Z" fill="#24262f" fill-opacity="1" />
<path d="M 283.535 570.269 L 272.05 399.056 L 296.775 403.309 L 311.245 591 Z" fill="#ece2cb" fill-opacity="1" />
<path d="M 153.945 481.047 L -16 560.946 L 89.4852 591 L 152.107 553.529 Z" fill="#37331f" fill-opacity="1" />
<path d="M 192.203 583.508 L 188.429 417.235 L 166.448 432.258 L 163.427 531.569 Z" fill="#c5b8a0" fill-opacity="1" />
<path d="M 193.761 480.619 L 196.241 591 L 282.143 591 L 278.305 547.198 Z" fill="#3c3023" fill-opacity="1" />
<path d="M 853.653 216.546 L 838.935 250.35 L 922.855 281.864 L 938.118 239.591 Z" fill="#252933" fill-opacity="1" />
<path d="M 923.616 577.411 L 899.589 591 L 888.831 357.101 L 892.468 237.468 Z" fill="#1c1a1b" fill-opacity="1" />
<path d="M 265.574 546.48 L 580.782 537.642 L 491.243 531.403 L 492.785 475.623 Z" fill="#baa17d" fill-opacity="1" />
<path d="M 203.522 264.836 L 653.606 377.416 L 232.457 386.568 L 154.898 370.099 Z" fill="#7eb0de" fill-opacity="1" />
<path d="M 409.504 439.496 L 346.311 447.913 L 341.383 408.797 L 330.334 400.557 Z" fill="#ddd7c7" fill-opacity="1" />
<path d="M 281.225 362.832 L 354.991 407.125 L 145.467 379.649 L 263.7 444.508 Z" fill="#4b4f3d" fill-opacity="1" />
<path d="M 22.8194 418.216 L 17.2625 404.207 L 89.1586 354.894 L 72.5822 472.995 Z" fill="#393a2b" fill-opacity="1" />
<path d="M 481.577 531.053 L 454.269 527.362 L 915.328 548.177 L 591.154 591 Z" fill="#bc8a7c" fill-opacity="1" />
<path d="M 1029.5 591 L 915.263 591 L 953.047 486.19 L 1023.03 494.339 Z" fill="#a3877a" fill-opacity="1" />
<path d="M 302.921 432.58 L 358.863 474.76 L 306.777 475.537 L 306.816 471.206 Z" fill="#d9ceb9" fill-opacity="1" />
<path d="M 708.371 298.697 L 709.105 416.234 L 659.36 357.615 L 661.936 282.069 Z" fill="#b3bcc4" fill-opacity="1" />
<path d="M 305.856 523.122 L 359.627 523.81 L 372.42 472.999 L 303.513 478.933 Z" fill="#3a2e23" fill-opacity="1" />
<path d="M 509.237 567.73 L 313.427 579.437 L 311.467 546.859 L 364.213 545.71 Z" fill="#413328" fill-opacity="1" />
<path d="M 60.2267 436.425 L -16 492.78 L 60.6818 515.978 L 41.2455 477.313 Z" fill="#bcae95" fill-opacity="1" />
<path d="M 43.6086 234.468 L 17.5881 265.725 L -16 313.745 L 171.032 255.779 Z" fill="#485b65" fill-opacity="1" />
<path d="M 642.821 388.111 L 661.307 409.248 L 660.533 227.276 L 640.702 241.344 Z" fill="#394a5e" fill-opacity="1" />
<path d="M 167.317 422.194 L 168.576 445.269 L 247.337 444.004 L 247.274 421.347 Z" fill="#c3baa8" fill-opacity="1" />
<path d="M 460.935 468.321 L 353.035 474.45 L 589.291 376.838 L 608.324 481.124 Z" fill="#3b382e" fill-opacity="1" />
<path d="M -16 208.061 L 883.385 214.428 L 876.484 -16 L -16 0.327152 Z" fill="#4775c0" fill-opacity="1" />
<path d="M 177.944 591 L 235.599 499.906 L 266.423 367.119 L 277.343 499.406 Z" fill="#3a342a" fill-opacity="1" />
<path d="M 75.9175 427.573 L 203.845 486.043 L 116.95 456.068 L 116.747 352.748 Z" fill="#b7b19f" fill-opacity="1" />
<path d="M 718.694 405.3 L 1008.54 435.069 L 784.247 493.32 L 762.571 515.65 Z" fill="#27291e" fill-opacity="1" />
<path d="M 70.1017 359.965 L 89.9992 297.186 L -13.9167 334.596 L 53.0267 376.403 Z" fill="#7aa0ca" fill-opacity="1" />
<path d="M 131.599 425.636 L 185.367 374.898 L 220.269 420.896 L 177.192 420.82 Z" fill="#3b3d29" fill-opacity="1" />
<path d="M 356.083 525.156 L 355.093 545.709 L 285.721 547.168 L 277.024 523.253 Z" fill="#ecdbb8" fill-opacity="1" />
<path d="M 166.433 328.936 L 175.441 292.201 L 148.714 252.259 L 116.71 240.026 Z" fill="#46524e" fill-opacity="1" />
<path d="M 205.605 443.118 L 282.968 485.607 L 103.282 483.01 L 179.433 502.556 Z" fill="#5b553e" fill-opacity="1" />
<path d="M 640.24 291.038 L 364.876 322.131 L 632.717 392.898 L 641.476 386.921 Z" fill="#81b5e4" fill-opacity="1" />
<path d="M 331.659 409.296 L 295.23 389.555 L 300.608 437.952 L 325.641 436.445 Z" fill="#41412a" fill-opacity="1" />
<path d="M 888.348 386.047 L 887.324 293.101 L 807.148 329.385 L 790.663 403.349 Z" fill="#9bc0e4" fill-opacity="1" />
<path d="M 907.379 226.324 L 1039 226.793 L 1025.62 -16 L 899.766 -4.69874 Z" fill="#5786ce" fill-opacity="1" />
<path d="M 798.647 511.836 L 773.85 461.685 L 756.824 500.478 L 512.617 523.676 Z" fill="#434d2d" fill-opacity="1" />
<path d="M 978.399 469.005 L 974.984 463.179 L 1039 460.066 L 1037.07 469.915 Z" fill="#a9a199" fill-opacity="1" />
<path d="M 161.614 369.279 L 90.9432 377.407 L 74.6028 351.425 L 146.429 341.841 Z" fill="#505d5c" fill-opacity="1" />
<path d="M 708.132 289.097 L 674.908 152.253 L 659.39 199.705 L 663.333 293.578 Z" fill="#7b848e" fill-opacity="1" />
<path d="M 837.122 253.216 L 878.098 130.715 L 678.366 167.596 L 711.487 275.3 Z" fill="#5b90d6" fill-opacity="1" />
<path d="M 713.848 585.74 L 849.797 489.121 L 808.54 482.324 L 910.834 584.336 Z" fill="#ab7f74" fill-opacity="1" />
<path d="M 115.528 462.66 L 95.3799 436.234 L 65.534 437.962 L 43.9551 485.123 Z" fill="#4a3e2f" fill-opacity="1" />
<path d="M 858.571 537.86 L 760.706 521.451 L 826.458 518.651 L 912.678 526.014 Z" fill="#544b43" fill-opacity="1" />
<path d="M 469.502 535.301 L 505.538 562.29 L 583.658 591 L 518.894 551.489 Z" fill="#3e362e" fill-opacity="1" />
<path d="M 646.491 219.949 C 591.043 197.165, 376.131 196.731, 1.75498 218.646" fill="none" stroke="#5689d0" stroke-opacity="1" stroke-width="16" stroke-linecap="round" />
<path d="M 795.036 10.3343 C 589.487 7.65821, 323.335 7.4745, -3.42251 9.78317" fill="none" stroke="#3b64ae" stroke-opacity="1" stroke-width="16" stroke-linecap="round" />
<path d="M 496.839 513.441 C 610.832 526.246, 688.754 483.668, 730.605 385.706" fill="none" stroke="#4a523a" stroke-opacity="1" stroke-width="14.8562" stroke-linecap="round" />
<path d="M 429.779 480.478 C 395.809 457.982, 374.444 445.337, 365.683 442.543" fill="none" stroke="#5b5141" stroke-opacity="1" stroke-width="13.6434" stroke-linecap="round" />
<path d="M -4.92686 383.577 C 15.5537 381.487, 24.1476 375.654, 20.8546 366.077" fill="none" stroke="#323527" stroke-opacity="1" stroke-width="16" stroke-linecap="round" />
<path d="M 989.361 479.563 C 638.532 409.223, 459.335 409.281, 451.77 479.735" fill="none" stroke="#26271f" stroke-opacity="1" stroke-width="15.3943" stroke-linecap="round" />
<path d="M 745.487 484.189 C 734.778 482.983, 731.814 473.732, 736.596 456.436" fill="none" stroke="#88827b" stroke-opacity="1" stroke-width="10.0647" stroke-linecap="round" />
<path d="M 520.365 391.766 C 533.957 438.608, 519.589 470.124, 477.258 486.313" fill="none" stroke="#64585b" stroke-opacity="1" stroke-width="14.9607" stroke-linecap="round" />
<path d="M 267.895 519.123 C 269.411 530.612, 262.059 537.764, 245.837 540.579" fill="none" stroke="#9c7e55" stroke-opacity="1" stroke-width="15.9845" stroke-linecap="round" />
<path d="M 151.26 322.734 C 140.954 331.339, 102.161 318.123, 34.879 283.088" fill="none" stroke="#6f99cc" stroke-opacity="1" stroke-width="11.633" stroke-linecap="round" />
<path d="M 723.554 25.4663 C 626.092 26.0769, 380.755 25.8951, -12.4555 24.9208" fill="none" stroke="#3c65b0" stroke-opacity="1" stroke-width="16" stroke-linecap="round" />
<path d="M 645.754 189.456 C 428.767 184.211, 208.438 188.579, -15.2351 202.561" fill="none" stroke="#5285ce" stroke-opacity="1" stroke-width="16" stroke-linecap="round" />
<path d="M 136.085 406.994 C 156.019 427.403, 162.665 441.953, 156.024 450.642" fill="none" stroke="#3d3e2e" stroke-opacity="1" stroke-width="15.4232" stroke-linecap="round" />
<path d="M 879.216 252.646 C 883.869 262.674, 880.056 269.785, 867.778 273.981" fill="none" stroke="#516c92" stroke-opacity="1" stroke-width="10.2091" stroke-linecap="round" />
<path d="M 438.075 498.024 C 426.211 496.132, 403.387 498.187, 369.604 504.187" fill="none" stroke="#b29871" stroke-opacity="1" stroke-width="16" stroke-linecap="round" />
<path d="M 671.428 161.692 C 671.521 171.343, 662.469 211.667, 644.272 282.665" fill="none" stroke="#39485b" stroke-opacity="1" stroke-width="9.24654" stroke-linecap="round" />
<path d="M 182.445 519.255 C 190.033 526.444, 192.986 540.474, 191.305 561.344" fill="none" stroke="#eae1c6" stroke-opacity="1" stroke-width="7.905" stroke-linecap="round" />
<path d="M 447.266 407.224 C 433.18 407.128, 419.985 407.561, 407.682 408.524" fill="none" stroke="#a2a8a3" stroke-opacity="1" stroke-width="3.3046" stroke-linecap="round" />
<path d="M 475.924 562.363 C 476.208 565.919, 485.005 569.85, 502.313 574.155" fill="none" stroke="#251d18" stroke-opacity="1" stroke-width="14.0991" stroke-linecap="round" />
<path d="M 814.039 415.383 C 753.125 384.994, 719.366 377.704, 712.761 393.513" fill="none" stroke="#565e59" stroke-opacity="1" stroke-width="12.7596" stroke-linecap="round" />
<path d="M 0.655213 399.857 C 9.49011 418.855, 25.3825 438.179, 48.3324 457.829" fill="none" stroke="#b1a994" stroke-opacity="1" stroke-width="13.3993" stroke-linecap="round" />
<path d="M 791.379 6.1649 C 788.652 39.0991, 525.578 50.3581, 2.1549 39.9419" fill="none" stroke="#3e68b4" stroke-opacity="1" stroke-width="16" stroke-linecap="round" />
<path d="M 93.3068 484.685 C 96.5237 481.474, 101.688 480.394, 108.799 481.445" fill="none" stroke="#c7ac7e" stroke-opacity="1" stroke-width="13.7445" stroke-linecap="round" />
<path d="M 1039 381.654 C 959.98 386.394, 920.805 380.636, 921.474 364.381" fill="none" stroke="#b9cee7" stroke-opacity="1" stroke-width="16" stroke-linecap="round" />
<path d="M 667.818 336.986 C 668.351 356.174, 668.532 370.677, 668.361 380.496" fill="none" stroke="#cbd3da" stroke-opacity="1" stroke-width="12.7035" stroke-linecap="round" />
<path d="M 331.974 454.764 C 330.616 387.517, 306.391 363.217, 259.298 381.863" fill="none" stroke="#5b655f" stroke-opacity="1" stroke-width="10.4272" stroke-linecap="round" />
<path d="M 690.566 448.498 C 616.564 437.097, 573.092 418.963, 560.153 394.095" fill="none" stroke="#2b2a21" stroke-opacity="1" stroke-width="16" stroke-linecap="round" />
<path d="M 1005.06 492.124 C 979.797 487.787, 953.569 498.782, 926.376 525.111" fill="none" stroke="#777069" stroke-opacity="1" stroke-width="11.0125" stroke-linecap="round" />
<path d="M 193.17 508.972 C 198.87 461.07, 216.084 442.822, 244.812 454.228" fill="none" stroke="#3c3b26" stroke-opacity="1" stroke-width="9.80904" stroke-linecap="round" />
<path d="M 703.374 278.573 C 668.866 285.289, 651.611 279.775, 651.609 262.031" fill="none" stroke="#3d4754" stroke-opacity="1" stroke-width="9.07733" stroke-linecap="round" />
<path d="M 347.364 417.771 C 376.831 434.331, 394.88 443.867, 401.512 446.38" fill="none" stroke="#f2eede" stroke-opacity="1" stroke-width="8.85141" stroke-linecap="round" />
<path d="M 556.677 527.802 C 564.858 536.274, 616.188 534.732, 710.668 523.176" fill="none" stroke="#8e796c" stroke-opacity="1" stroke-width="15.0214" stroke-linecap="round" />
<path d="M 508.313 409.204 C 517.35 407.875, 527.104 408.35, 537.577 410.63" fill="none" stroke="#b1b7b6" stroke-opacity="1" stroke-width="2.96882" stroke-linecap="round" />
<path d="M 380.075 482.039 C 366.302 481.193, 359.903 500.894, 360.879 541.142" fill="none" stroke="#5a4935" stroke-opacity="1" stroke-width="5.33898" stroke-linecap="round" />
<path d="M 140.74 348.71 C 86.7642 368.924, 40.5217 394.336, 2.01205 424.947" fill="none" stroke="#323526" stroke-opacity="1" stroke-width="6.52196" stroke-linecap="round" />
<path d="M 133.968 574.483 C 161.867 577.677, 175.134 571.617, 173.769 556.301" fill="none" stroke="#b1a588" stroke-opacity="1" stroke-width="16" stroke-linecap="round" />
<path d="M 486.44 553.427 C 486.66 557.937, 506.926 567.221, 547.237 581.279" fill="none" stroke="#b0a28c" stroke-opacity="1" stroke-width="7.32583" stroke-linecap="round" />
<path d="M 925.192 282.535 C 922.449 281.641, 902.837 278.593, 866.354 273.389" fill="none" stroke="#292c37" stroke-opacity="1" stroke-width="6.46422" stroke-linecap="round" />
<path d="M 178.287 475.815 C 174.345 474.043, 151.356 464.751, 109.32 447.941" fill="none" stroke="#e6e0d0" stroke-opacity="1" stroke-width="5.51082" stroke-linecap="round" />
<path d="M 500.662 523.142 C 499.669 546.882, 457.651 559.582, 374.608 561.241" fill="none" stroke="#645441" stroke-opacity="1" stroke-width="5.06102" stroke-linecap="round" />
<path d="M 194.037 480.206 C 128.997 496.344, 96.5859 467.394, 96.8026 393.357" fill="none" stroke="#7c6f59" stroke-opacity="1" stroke-width="3.98105" stroke-linecap="round" />
<path d="M 691.632 488.453 C 679.709 470.414, 685.803 457.982, 709.913 451.158" fill="none" stroke="#7a7e75" stroke-opacity="1" stroke-width="9.15308" stroke-linecap="round" />
<path d="M 327.742 472.899 C 341.976 469.608, 353.763 465.476, 363.106 460.505" fill="none" stroke="#d9ceb9" stroke-opacity="1" stroke-width="7.6318" stroke-linecap="round" />
<path d="M -16 465.365 C 17.471 461.399, 35.1371 455.264, 36.9984 446.957" fill="none" stroke="#4e4431" stroke-opacity="1" stroke-width="7.17782" stroke-linecap="round" />
<path d="M 620.233 405.799 C 620.057 403.771, 617.336 403.992, 612.069 406.463" fill="none" stroke="#909c9c" stroke-opacity="1" stroke-width="9.12569" stroke-linecap="round" />
<path d="M 662.542 270.062 C 683.361 273.492, 695.896 271.574, 700.147 264.307" fill="none" stroke="#bdc4c9" stroke-opacity="1" stroke-width="6.60554" stroke-linecap="round" />
<path d="M 452.34 431.014 C 482.176 431.375, 491.954 417.17, 481.672 388.399" fill="none" stroke="#22271f" stroke-opacity="1" stroke-width="16" stroke-linecap="round" />
<path d="M 663.564 475.991 C 666.24 489.728, 662.241 497.638, 651.567 499.722" fill="none" stroke="#979691" stroke-opacity="1" stroke-width="7.35438" stroke-linecap="round" />
<path d="M 126.739 284.13 C 141.604 301.326, 128.824 320.485, 88.3997 341.605" fill="none" stroke="#729ac8" stroke-opacity="1" stroke-width="16" stroke-linecap="round" />
<path d="M 30.8373 465.056 C 28.5505 475.79, 35.719 489.534, 52.3426 506.287" fill="none" stroke="#e4d7bb" stroke-opacity="1" stroke-width="12.5211" stroke-linecap="round" />
<path d="M 880.964 -16 C 887.505 60.3978, 890.357 134.612, 889.519 206.641" fill="none" stroke="#0c0e19" stroke-opacity="1" stroke-width="11.3911" stroke-linecap="round" />
<path d="M 541.67 475.733 C 572.372 427.134, 630.337 408.496, 715.564 419.819" fill="none" stroke="#2d2e24" stroke-opacity="1" stroke-width="14.6907" stroke-linecap="round" />
<path d="M 129.46 228.719 C 215.095 302.871, 382.378 322.522, 631.308 287.672" fill="none" stroke="#6ba1de" stroke-opacity="1" stroke-width="16" stroke-linecap="round" />
<path d="M 506.246 536.272 C 523.622 547.243, 543.687 558.444, 566.441 569.875" fill="none" stroke="#c9baa5" stroke-opacity="1" stroke-width="11.5201" stroke-linecap="round" />
<path d="M 679.523 307.593 C 672.544 319.489, 673.059 327.068, 681.067 330.331" fill="none" stroke="#8c9194" stroke-opacity="1" stroke-width="16" stroke-linecap="round" />
<path d="M 222.006 481.903 C 218.158 503.052, 218.893 516.548, 224.214 522.391" fill="none" stroke="#8c7f62" stroke-opacity="1" stroke-width="6.48772" stroke-linecap="round" />
<path d="M 574.692 486.309 C 556.94 479.34, 535.1 463.091, 509.172 437.563" fill="none" stroke="#474439" stroke-opacity="1" stroke-width="10.7533" stroke-linecap="round" />
<path d="M 892.07 516.436 C 883.232 520.201, 856.269 518.127, 811.181 510.215" fill="none" stroke="#a59b8c" stroke-opacity="1" stroke-width="9.13339" stroke-linecap="round" />
<path d="M 358.33 406.499 C 404.711 419.655, 420.752 438.222, 406.453 462.201" fill="none" stroke="#4b452b" stroke-opacity="1" stroke-width="13.8479" stroke-linecap="round" />
<path d="M 96.443 507.15 C 92.2472 492.459, 72.8525 478.862, 38.2587 466.359" fill="none" stroke="#514b3b" stroke-opacity="1" stroke-width="8.01861" stroke-linecap="round" />
<path d="M 502.218 497.731 C 519.737 504.68, 528.498 497.173, 528.499 475.209" fill="none" stroke="#b19b8a" stroke-opacity="1" stroke-width="8.78335" stroke-linecap="round" />
<path d="M 1033.12 549.578 C 1026.77 527.851, 990.451 517.981, 924.176 519.968" fill="none" stroke="#b3a795" stroke-opacity="1" stroke-width="10.2857" stroke-linecap="round" />
<path d="M 900.666 548.738 C 898.287 516.648, 915.073 504.361, 951.023 511.876" fill="none" stroke="#252120" stroke-opacity="1" stroke-width="5.65005" stroke-linecap="round" />
<path d="M 476.986 486.617 C 475.071 440.386, 465.999 417.344, 449.77 417.491" fill="none" stroke="#1c1b17" stroke-opacity="1" stroke-width="7.68827" stroke-linecap="round" />
<path d="M 993.93 405.147 C 985.118 405.876, 968.027 402.569, 942.659 395.227" fill="none" stroke="#636b6e" stroke-opacity="1" stroke-width="8.60232" stroke-linecap="round" />
<path d="M 655.951 173.125 C 481.921 171.345, 265.51 173.498, 6.71695 179.585" fill="none" stroke="#4f81cb" stroke-opacity="1" stroke-width="16" stroke-linecap="round" />
<path d="M 1039 328.42 C 1026.8 371.078, 987.466 379.337, 921.005 353.198" fill="none" stroke="#afccec" stroke-opacity="1" stroke-width="16" stroke-linecap="round" />
<path d="M -0.495411 295.979 C 18.0057 277.355, 39.2075 264.092, 63.1099 256.19" fill="none" stroke="#37423a" stroke-opacity="1" stroke-width="12.9" stroke-linecap="round" />
<path d="M 97.8795 494.467 C 99.9651 500.781, 62.0053 532.76, -16 590.405" fill="none" stroke="#31301c" stroke-opacity="1" stroke-width="7.63919" stroke-linecap="round" />
<path d="M -4.97819 59.5858 C 415.856 62.8871, 660.016 57.43, 727.502 43.2146" fill="none" stroke="#3f6ab6" stroke-opacity="1" stroke-width="16" stroke-linecap="round" />
<path d="M 157.242 509.107 C 138.431 553.456, 80.6835 573.211, -16 568.371" fill="none" stroke="#3c3521" stroke-opacity="1" stroke-width="13.9188" stroke-linecap="round" />
<path d="M 876.62 475.989 C 890.993 468.64, 919.996 461.433, 963.628 454.366" fill="none" stroke="#212318" stroke-opacity="1" stroke-width="16" stroke-linecap="round" />
<path d="M 926.122 232.306 C 938.629 237.81, 943.777 244.294, 941.565 251.758" fill="none" stroke="#57585a" stroke-opacity="1" stroke-width="11.649" stroke-linecap="round" />
<path d="M 251.9 425.673 C 251.759 392.583, 264.496 381.966, 290.111 393.822" fill="none" stroke="#383a2c" stroke-opacity="1" stroke-width="12.6858" stroke-linecap="round" />
<path d="M 892.441 -16 C 892.97 -16, 896.488 55.7121, 902.995 199.136" fill="none" stroke="#464c56" stroke-opacity="1" stroke-width="6.3619" stroke-linecap="round" />
<path d="M 824.443 392.584 C 814.81 396.267, 777.097 381.708, 711.305 348.908" fill="none" stroke="#9dbedb" stroke-opacity="1" stroke-width="16" stroke-linecap="round" />
<path d="M 285.085 583.069 C 280.37 521.637, 277.793 464.626, 277.354 412.037" fill="none" stroke="#e7dbc3" stroke-opacity="1" stroke-width="4.25911" stroke-linecap="round" />
<path d="M 434.555 420.546 C 419.445 420.763, 413.706 425.992, 417.336 436.234" fill="none" stroke="#6d767a" stroke-opacity="1" stroke-width="8.15685" stroke-linecap="round" />
<path d="M 663.11 250.378 C 665.399 251.7, 665.54 257.539, 663.532 267.894" fill="none" stroke="#cad2d7" stroke-opacity="1" stroke-width="6.00156" stroke-linecap="round" />
<path d="M 472.893 574.371 C 468.687 573.93, 435.964 575.101, 374.723 577.882" fill="none" stroke="#a29380" stroke-opacity="1" stroke-width="6.29833" stroke-linecap="round" />
<path d="M 714.559 409.966 C 691.447 392.646, 685.991 362.73, 698.19 320.22" fill="none" stroke="#c3cad0" stroke-opacity="1" stroke-width="6.07112" stroke-linecap="round" />
<path d="M 49.5842 458.612 C 45.5883 456.053, 45.3921 453.127, 48.9957 449.835" fill="none" stroke="#e9e0c5" stroke-opacity="1" stroke-width="12.0241" stroke-linecap="round" />
<path d="M 309.05 342.019 C 379.879 391.475, 446.789 394.289, 509.78 350.46" fill="none" stroke="#8abbe1" stroke-opacity="1" stroke-width="12.0076" stroke-linecap="round" />
<path d="M 866.368 481.893 C 867.773 486.398, 868.517 491.408, 868.6 496.925" fill="none" stroke="#7a7478" stroke-opacity="1" stroke-width="11.1022" stroke-linecap="round" />
<path d="M 670.301 498.53 C 676.508 442.275, 669.933 409.253, 650.574 399.464" fill="none" stroke="#20201a" stroke-opacity="1" stroke-width="6.24477" stroke-linecap="round" />
<path d="M 563.323 384.159 C 548.149 394.801, 516.202 395.291, 467.483 385.628" fill="none" stroke="#4e5f65" stroke-opacity="1" stroke-width="10.9312" stroke-linecap="round" />
<path d="M 316.059 456.276 C 322.377 452.158, 324.102 446.877, 321.234 440.435" fill="none" stroke="#e6dfcd" stroke-opacity="1" stroke-width="7.14664" stroke-linecap="round" />
<path d="M 191.126 578.595 C 229.341 580.8, 256.509 570.991, 272.63 549.167" fill="none" stroke="#201a14" stroke-opacity="1" stroke-width="16" stroke-linecap="round" />
<path d="M 784.48 525.668 C 766.43 531.876, 744.041 533.006, 717.315 529.059" fill="none" stroke="#544741" stroke-opacity="1" stroke-width="10.8144" stroke-linecap="round" />
<path d="M 484.708 542.993 C 424.793 542.561, 383.255 545.779, 360.095 552.645" fill="none" stroke="#796148" stroke-opacity="1" stroke-width="11.2515" stroke-linecap="round" />
<path d="M 171.706 381.624 C 163.037 395.306, 144.984 390.358, 117.544 366.778" fill="none" stroke="#6c7b73" stroke-opacity="1" stroke-width="16" stroke-linecap="round" />
<path d="M 921.607 195.711 C 963.537 245.01, 997.317 243.429, 1022.95 190.968" fill="none" stroke="#6a9cdf" stroke-opacity="1" stroke-width="16" stroke-linecap="round" />
<path d="M 357.593 448.773 C 362.615 446.212, 358.049 432.164, 343.896 406.628" fill="none" stroke="#ede9da" stroke-opacity="1" stroke-width="5.4055" stroke-linecap="round" />
<path d="M 584.041 514.951 C 639.053 514.287, 680.026 512.101, 706.96 508.392" fill="none" stroke="#4b602c" stroke-opacity="1" stroke-width="14.121" stroke-linecap="round" />
<path d="M 272.536 387.296 C 271.704 385.833, 249.749 385.212, 206.67 385.432" fill="none" stroke="#88abc4" stroke-opacity="1" stroke-width="4.3752" stroke-linecap="round" />
<path d="M 139.379 483.834 C 156.765 489.922, 167.325 489.656, 171.061 483.037" fill="none" stroke="#857965" stroke-opacity="1" stroke-width="13.9778" stroke-linecap="round" />
<path d="M 1039 502.519 C 959.288 504.146, 920.087 494.551, 921.397 473.736" fill="none" stroke="#7c7668" stroke-opacity="1" stroke-width="5.31607" stroke-linecap="round" />
<path d="M 23.9497 247.569 C 31.5325 221.492, 48.8076 216.754, 75.775 233.354" fill="none" stroke="#6f93c5" stroke-opacity="1" stroke-width="14.1589" stroke-linecap="round" />
<path d="M 707.039 291.922 C 798.169 244.189, 854.742 213.491, 876.757 199.828" fill="none" stroke="#689ddd" stroke-opacity="1" stroke-width="12.8519" stroke-linecap="round" />
<path d="M 250.851 484.116 C 250.733 462.516, 250.959 446.945, 251.528 437.405" fill="none" stroke="#929791" stroke-opacity="1" stroke-width="1.62343" stroke-linecap="round" />
<path d="M 459.466 371.562 C 459.753 392.195, 443.208 399.881, 409.831 394.62" fill="none" stroke="#72838d" stroke-opacity="1" stroke-width="3.34472" stroke-linecap="round" />
<path d="M 701.787 241.465 C 683.833 240.499, 672.272 239.948, 667.103 239.812" fill="none" stroke="#c2c9d1" stroke-opacity="1" stroke-width="3.02337" stroke-linecap="round" />
<path d="M 789.257 391.435 C 786.677 367.295, 786.912 354.672, 789.962 353.568" fill="none" stroke="#5c738d" stroke-opacity="1" stroke-width="2.95146" stroke-linecap="round" />
<path d="M 531.539 471.584 C 511.907 473.935, 495.68 474.676, 482.86 473.808" fill="none" stroke="#ae5d75" stroke-opacity="1" stroke-width="4.9826" stroke-linecap="round" />
<path d="M 850.564 229.607 C 853.486 232.706, 860.698 244.987, 872.197 266.449" fill="none" stroke="#171820" stroke-opacity="1" stroke-width="9.50327" stroke-linecap="round" />
<path d="M -16 527.578 C -6.54318 492.197, 4.44473 477.074, 16.9637 482.208" fill="none" stroke="#94856e" stroke-opacity="1" stroke-width="15.961" stroke-linecap="round" />
<path d="M 796.813 351.74 C 800.268 387.347, 799.794 407.324, 795.392 411.67" fill="none" stroke="#798a9b" stroke-opacity="1" stroke-width="3.93063" stroke-linecap="round" />
<path d="M -16 156.24 C 331.025 170.833, 627.299 161.47, 872.823 128.15" fill="none" stroke="#4d7fc9" stroke-opacity="1" stroke-width="16" stroke-linecap="round" />
<path d="M 488.141 531.409 C 487.459 523.542, 486.356 508.527, 484.831 486.365" fill="none" stroke="#cfbb97" stroke-opacity="1" stroke-width="7.97749" stroke-linecap="round" />
<path d="M 632.416 359.707 C 632.756 374.23, 582.668 378.744, 482.15 373.248" fill="none" stroke="#96c0e1" stroke-opacity="1" stroke-width="13.0622" stroke-linecap="round" />
<path d="M 889.794 235.008 C 881.628 219.989, 872.513 215.091, 862.448 220.314" fill="none" stroke="#3d3f43" stroke-opacity="1" stroke-width="9.44997" stroke-linecap="round" />
<path d="M 112.126 423.944 C 111.89 417.497, 104.279 405.64, 89.2932 388.374" fill="none" stroke="#645e4d" stroke-opacity="1" stroke-width="2.7388" stroke-linecap="round" />
<path d="M 1008.05 407.234 C 1008.13 452.825, 1008.89 481.899, 1010.33 494.456" fill="none" stroke="#2e2a25" stroke-opacity="1" stroke-width="4.34289" stroke-linecap="round" />
<path d="M 584.267 468.511 C 605.699 499.459, 626.027 499.516, 645.251 468.683" fill="none" stroke="#4c4c36" stroke-opacity="1" stroke-width="10.9843" stroke-linecap="round" />
<path d="M 539.121 440.593 C 571.524 433.733, 582.963 446.137, 573.441 477.807" fill="none" stroke="#1f1d19" stroke-opacity="1" stroke-width="10.6556" stroke-linecap="round" />
<path d="M 696.654 591 C 762.676 551.151, 827.544 536.41, 891.26 546.778" fill="none" stroke="#ba8377" stroke-opacity="1" stroke-width="14.5514" stroke-linecap="round" />
<path d="M 30.0679 373.318 C 18.4632 394.034, 12.8836 412.398, 13.3288 428.411" fill="none" stroke="#4a4c37" stroke-opacity="1" stroke-width="4.08365" stroke-linecap="round" />
<path d="M 3.04565 76.4893 C 361.172 77.6301, 579.538 74.9715, 658.144 68.5136" fill="none" stroke="#416db9" stroke-opacity="1" stroke-width="16" stroke-linecap="round" />
<path d="M 144.404 318.57 C 76.4458 315.039, 40.0354 336.868, 35.1732 384.057" fill="none" stroke="#799fc7" stroke-opacity="1" stroke-width="10.2789" stroke-linecap="round" />
<path d="M 838.168 509.917 C 836.919 491.462, 829.441 485.582, 815.734 492.278" fill="none" stroke="#96928b" stroke-opacity="1" stroke-width="6.30782" stroke-linecap="round" />
<path d="M 583.747 392.819 C 614.103 393.853, 649.708 394.671, 690.563 395.274" fill="none" stroke="#3e4945" stroke-opacity="1" stroke-width="5.07076" stroke-linecap="round" />
<path d="M 430.103 534.107 C 441.276 529.158, 443.05 519.579, 435.425 505.37" fill="none" stroke="#a1835d" stroke-opacity="1" stroke-width="16" stroke-linecap="round" />
<path d="M 907.262 591 C 903.162 502.879, 898.558 388.472, 893.451 247.78" fill="none" stroke="#141215" stroke-opacity="1" stroke-width="13.7668" stroke-linecap="round" />
<path d="M 140.365 435.948 C 137.118 434.925, 117.386 433.117, 81.1708 430.525" fill="none" stroke="#b1b2ac" stroke-opacity="1" stroke-width="6.85834" stroke-linecap="round" />
<path d="M 744.864 467.642 C 816.448 427.081, 860.019 409.326, 875.575 414.379" fill="none" stroke="#222619" stroke-opacity="1" stroke-width="14.7503" stroke-linecap="round" />
<path d="M 216.236 480.967 C 216.803 498.007, 223.222 504.412, 235.494 500.182" fill="none" stroke="#afa085" stroke-opacity="1" stroke-width="5.40751" stroke-linecap="round" />
<path d="M 740.33 497.876 C 713.569 491.485, 699.561 490.177, 698.305 493.953" fill="none" stroke="#343231" stroke-opacity="1" stroke-width="3.69268" stroke-linecap="round" />
<path d="M 377.91 534.236 C 373.778 534.241, 372.526 524.025, 374.156 503.586" fill="none" stroke="#dab984" stroke-opacity="1" stroke-width="14.4836" stroke-linecap="round" />
<path d="M 105.754 379.393 C 111.099 390.1, 124.239 407.587, 145.176 431.855" fill="none" stroke="#5f6046" stroke-opacity="1" stroke-width="3.21295" stroke-linecap="round" />
<path d="M 1013.79 8.28282 C 934.267 -7.3385, 899.433 13.8542, 909.288 71.861" fill="none" stroke="#4a75c0" stroke-opacity="1" stroke-width="16" stroke-linecap="round" />
<path d="M 271.858 508.299 C 252.884 529.143, 232.759 549.308, 211.484 568.793" fill="none" stroke="#896f4e" stroke-opacity="1" stroke-width="5.06669" stroke-linecap="round" />
<path d="M 119.235 248.728 C 87.8325 247.747, 59.0202 258.376, 32.798 280.616" fill="none" stroke="#3a453e" stroke-opacity="1" stroke-width="6.07258" stroke-linecap="round" />
<path d="M 858.929 266.956 C 832.998 259.221, 782.441 267.401, 707.258 291.495" fill="none" stroke="#70a4e1" stroke-opacity="1" stroke-width="14.523" stroke-linecap="round" />
<path d="M 90.7798 474.858 C 93.3454 487.055, 92.5341 494.343, 88.3459 496.722" fill="none" stroke="#cab386" stroke-opacity="1" stroke-width="6.23025" stroke-linecap="round" />
<path d="M 14.6424 542.642 C 13.4737 529.356, 16.4399 522.321, 23.5409 521.537" fill="none" stroke="#5c4d2f" stroke-opacity="1" stroke-width="13.9683" stroke-linecap="round" />
<path d="M 777.976 507.033 C 756.414 509.77, 732.989 510.55, 707.7 509.374" fill="none" stroke="#1c2615" stroke-opacity="1" stroke-width="5.4387" stroke-linecap="round" />
<path d="M 916.718 223.346 C 982.435 196.323, 1017.35 203.029, 1021.47 243.463" fill="none" stroke="#6b9cdf" stroke-opacity="1" stroke-width="16" stroke-linecap="round" />
<path d="M 651.296 246.545 C 659.765 242.535, 675.145 243.08, 697.435 248.18" fill="none" stroke="#48515e" stroke-opacity="1" stroke-width="5.41876" stroke-linecap="round" />
<path d="M 919.748 568.657 C 917.807 528.978, 913.431 450.081, 906.619 331.968" fill="none" stroke="#3d3a38" stroke-opacity="1" stroke-width="6.38482" stroke-linecap="round" />
<path d="M 339.005 455.487 C 340.067 458.842, 345.2 458.186, 354.403 453.518" fill="none" stroke="#47382b" stroke-opacity="1" stroke-width="7.72615" stroke-linecap="round" />
<path d="M 48.4846 312.109 C 40.8396 305.544, 19.3448 306.296, -16 314.365" fill="none" stroke="#45576d" stroke-opacity="1" stroke-width="6.34078" stroke-linecap="round" />
<path d="M 795.607 411.62 C 808.801 411.794, 818.594 412.397, 824.986 413.426" fill="none" stroke="#99a1a2" stroke-opacity="1" stroke-width="2.41746" stroke-linecap="round" />
<path d="M 20.9444 213.715 C 172.837 227.099, 380.324 223.822, 643.405 203.884" fill="none" stroke="#578bd2" stroke-opacity="1" stroke-width="16" stroke-linecap="round" />
<path d="M -16 226.466 C 36.6836 230.171, 81.0529 233.373, 117.108 236.071" fill="none" stroke="#a8b5b1" stroke-opacity="1" stroke-width="1.62015" stroke-linecap="round" />
<path d="M 84.9446 431.492 C 90.6788 423.314, 91.1941 411.522, 86.4905 396.117" fill="none" stroke="#c9c2af" stroke-opacity="1" stroke-width="8.25562" stroke-linecap="round" />
<path d="M 411.087 399.972 C 392.764 384.316, 369.783 383.088, 342.142 396.289" fill="none" stroke="#525a54" stroke-opacity="1" stroke-width="5.34741" stroke-linecap="round" />
<path d="M 614.845 432.99 C 590.811 416.141, 550.411 411.045, 493.644 417.7" fill="none" stroke="#39382f" stroke-opacity="1" stroke-width="8.64236" stroke-linecap="round" />
<path d="M 697.083 470.34 C 721.991 471.495, 728.936 460.104, 717.919 436.166" fill="none" stroke="#252729" stroke-opacity="1" stroke-width="15.0885" stroke-linecap="round" />
<path d="M 187.551 295.797 C 390.92 328.474, 538.505 327.618, 630.305 293.228" fill="none" stroke="#72a9e2" stroke-opacity="1" stroke-width="16" stroke-linecap="round" />
<path d="M 714.026 345.965 C 826.665 342.257, 882.088 322.013, 880.292 285.234" fill="none" stroke="#91bde9" stroke-opacity="1" stroke-width="12.7127" stroke-linecap="round" />
<path d="M 382.081 566.917 C 338.592 560.69, 312.642 568.718, 304.232 591" fill="none" stroke="#1c1512" stroke-opacity="1" stroke-width="7.75481" stroke-linecap="round" />
<path d="M 921.379 499.004 C 951.106 503.526, 989.916 506.313, 1037.81 507.365" fill="none" stroke="#867759" stroke-opacity="1" stroke-width="5.58796" stroke-linecap="round" />
<path d="M 730.882 452.836 C 732.425 458.191, 738.495 457.326, 749.092 450.239" fill="none" stroke="#787a75" stroke-opacity="1" stroke-width="5.93981" stroke-linecap="round" />
<path d="M 187.327 463.487 C 190.699 441.453, 187.397 429.228, 177.421 426.81" fill="none" stroke="#ddd2bb" stroke-opacity="1" stroke-width="6.75854" stroke-linecap="round" />
<path d="M 982.163 427.163 C 992.649 427.599, 996.923 433.668, 994.983 445.369" fill="none" stroke="#656c73" stroke-opacity="1" stroke-width="6.03744" stroke-linecap="round" />
<path d="M 692.78 225.723 C 674.885 230.623, 666.779 224.675, 668.462 207.879" fill="none" stroke="#adb4bc" stroke-opacity="1" stroke-width="4.19791" stroke-linecap="round" />
<path d="M 40.8069 573.864 C 45.5946 544.834, 83.5194 521.835, 154.582 504.866" fill="none" stroke="#2c2a18" stroke-opacity="1" stroke-width="16" stroke-linecap="round" />
<path d="M 296.779 376.747 C 297.193 366.879, 399.395 362.463, 603.387 363.501" fill="none" stroke="#8cbde5" stroke-opacity="1" stroke-width="6.19352" stroke-linecap="round" />
<path d="M 105.524 343.342 C 119.87 333.935, 116.764 316.483, 96.2062 290.986" fill="none" stroke="#79a2d3" stroke-opacity="1" stroke-width="5.03935" stroke-linecap="round" />
<path d="M 184.358 529.686 C 189.004 539.367, 187.478 547.97, 179.78 555.496" fill="none" stroke="#ebe1c7" stroke-opacity="1" stroke-width="11.3214" stroke-linecap="round" />
<path d="M 704.186 409.031 C 704.988 346.03, 704.227 307.732, 701.905 294.136" fill="none" stroke="#c6d1db" stroke-opacity="1" stroke-width="4.76355" stroke-linecap="round" />
<path d="M 704.694 289.945 C 685.473 292.792, 666.712 291.528, 648.41 286.155" fill="none" stroke="#535c68" stroke-opacity="1" stroke-width="2.87443" stroke-linecap="round" />
<path d="M 1027.19 338.842 C 986.13 358.842, 952.684 357.165, 926.854 333.81" fill="none" stroke="#a1c6ed" stroke-opacity="1" stroke-width="16" stroke-linecap="round" />
<path d="M 461.402 481.005 C 469.568 485.476, 475.326 498.56, 478.678 520.259" fill="none" stroke="#c4b08b" stroke-opacity="1" stroke-width="8.64269" stroke-linecap="round" />
<path d="M 789.673 521.081 C 793.773 519.639, 793.8 508.122, 789.755 486.53" fill="none" stroke="#575142" stroke-opacity="1" stroke-width="16" stroke-linecap="round" />
<path d="M 691.863 491.168 C 692.444 486.416, 690.943 483.805, 687.36 483.333" fill="none" stroke="#b5ad8e" stroke-opacity="1" stroke-width="9.06631" stroke-linecap="round" />
<path d="M 93.7968 374.037 C 45.953 390.005, 26.0624 413.091, 34.125 443.296" fill="none" stroke="#2d2f22" stroke-opacity="1" stroke-width="2.37916" stroke-linecap="round" />
<path d="M 550.203 483.632 C 555.323 486.498, 557.288 490.6, 556.097 495.937" fill="none" stroke="#b4af93" stroke-opacity="1" stroke-width="7.16333" stroke-linecap="round" />
<path d="M 694.275 257.123 C 698.045 261.533, 699.792 266.063, 699.513 270.713" fill="none" stroke="#b7bdc4" stroke-opacity="1" stroke-width="10.4164" stroke-linecap="round" />
<path d="M 555.095 571.614 C 520.27 560.927, 495.872 553.535, 481.902 549.437" fill="none" stroke="#312a23" stroke-opacity="1" stroke-width="3.72641" stroke-linecap="round" />
<path d="M 191.552 518.414 C 208.463 504.391, 213.232 493.662, 205.858 486.229" fill="none" stroke="#5b4931" stroke-opacity="1" stroke-width="7.89056" stroke-linecap="round" />
<path d="M 435.269 444.227 C 393.576 460.676, 374.567 474.9, 378.244 486.898" fill="none" stroke="#5d533c" stroke-opacity="1" stroke-width="14.4099" stroke-linecap="round" />
<path d="M 665.949 232.586 C 683.516 234.383, 693.191 234.828, 694.974 233.92" fill="none" stroke="#c4cbd4" stroke-opacity="1" stroke-width="2.6808" stroke-linecap="round" />
<path d="M 910.181 268.586 C 912.16 271.005, 912.412 272.985, 910.934 274.528" fill="none" stroke="#597aa3" stroke-opacity="1" stroke-width="5.83486" stroke-linecap="round" />
<path d="M 136.31 277.913 C 107.977 246.48, 84.8031 249.413, 66.7888 286.711" fill="none" stroke="#5b6d7a" stroke-opacity="1" stroke-width="7.41406" stroke-linecap="round" />
<path d="M 540.503 420.026 C 533.522 424.503, 524.14 424.774, 512.356 420.838" fill="none" stroke="#707c85" stroke-opacity="1" stroke-width="5.05269" stroke-linecap="round" />
<path d="M 164.804 405.352 C 173.789 390.318, 172.424 373.243, 160.71 354.127" fill="none" stroke="#606f67" stroke-opacity="1" stroke-width="2.78505" stroke-linecap="round" />
<path d="M 952.981 533.011 C 944.014 533.021, 936.431 532.622, 930.231 531.814" fill="none" stroke="#6f6558" stroke-opacity="1" stroke-width="14.5399" stroke-linecap="round" />
<path d="M 200.284 591 C 202.72 565.289, 205.286 540.713, 207.983 517.274" fill="none" stroke="#231a13" stroke-opacity="1" stroke-width="14.1511" stroke-linecap="round" />
<path d="M 45.2934 317.677 C 43.3941 328.469, 30.0946 341.141, 5.39483 355.695" fill="none" stroke="#81a7d3" stroke-opacity="1" stroke-width="13.863" stroke-linecap="round" />
<path d="M 20.3182 421.204 C 23.057 431.11, 23.6785 440.965, 22.1828 450.769" fill="none" stroke="#d4ccba" stroke-opacity="1" stroke-width="3.74034" stroke-linecap="round" />
<path d="M 925.926 236.11 C 919.888 240.429, 918.177 254.797, 920.792 279.213" fill="none" stroke="#0f1018" stroke-opacity="1" stroke-width="9.1933" stroke-linecap="round" />
<path d="M 634.791 384.334 C 618.053 391.876, 593.727 381.763, 561.815 353.994" fill="none" stroke="#9ac3e3" stroke-opacity="1" stroke-width="9.39361" stroke-linecap="round" />
<path d="M 41.5652 340.643 C 45.0126 407.119, 54.4915 457.549, 70.0019 491.933" fill="none" stroke="#414841" stroke-opacity="1" stroke-width="2.04686" stroke-linecap="round" />
<path d="M 559.686 386.164 C 560.604 461.878, 561.579 500.338, 562.611 501.544" fill="none" stroke="#26241d" stroke-opacity="1" stroke-width="4.48634" stroke-linecap="round" />
<path d="M 103.809 326.453 C 70.5389 315.482, 48.8605 305.379, 38.7736 296.145" fill="none" stroke="#698ebd" stroke-opacity="1" stroke-width="7.51212" stroke-linecap="round" />
<path d="M 881.936 249.328 C 878.272 256.831, 878.158 263.725, 881.593 270.009" fill="none" stroke="#6289bd" stroke-opacity="1" stroke-width="7.35533" stroke-linecap="round" />
<path d="M 171.92 504.187 C 179.26 527.82, 173.984 539.588, 156.091 539.49" fill="none" stroke="#cec1a6" stroke-opacity="1" stroke-width="5.52124" stroke-linecap="round" />
<path d="M 771.838 383.119 C 764.719 400.456, 745.462 400.092, 714.068 382.027" fill="none" stroke="#444b42" stroke-opacity="1" stroke-width="4.43665" stroke-linecap="round" />
<path d="M 440.11 444.983 C 439.01 429.766, 437.5 421.478, 435.581 420.119" fill="none" stroke="#6f7a7d" stroke-opacity="1" stroke-width="4.2959" stroke-linecap="round" />
<path d="M 1011.76 396.612 C 963.745 396.659, 928.593 398.669, 906.298 402.641" fill="none" stroke="#404c52" stroke-opacity="1" stroke-width="2.52599" stroke-linecap="round" />
<path d="M 304.357 360.066 C 215.75 384.315, 169.177 378.011, 164.639 341.153" fill="none" stroke="#87b2dc" stroke-opacity="1" stroke-width="8.70298" stroke-linecap="round" />
<path d="M 0.016332 415.99 C 7.52181 405.902, 9.64758 399.38, 6.39361 396.424" fill="none" stroke="#d7d0bc" stroke-opacity="1" stroke-width="6.28821" stroke-linecap="round" />
<path d="M 704.879 287.135 C 703.319 288.735, 690.932 288.576, 667.716 286.659" fill="none" stroke="#c9cdd2" stroke-opacity="1" stroke-width="1.60562" stroke-linecap="round" />
<path d="M 77.5677 490.503 C 78.1438 503.29, 72.3216 506.864, 60.101 501.225" fill="none" stroke="#a48e70" stroke-opacity="1" stroke-width="8.7679" stroke-linecap="round" />
<path d="M 929.748 548.829 C 935.919 576.943, 972.336 576.142, 1039 546.426" fill="none" stroke="#b9877e" stroke-opacity="1" stroke-width="16" stroke-linecap="round" />
<path d="M 871.941 164.569 C 884.457 195.526, 831.402 226.849, 712.775 258.539" fill="none" stroke="#6297db" stroke-opacity="1" stroke-width="16" stroke-linecap="round" />
<path d="M 492.92 567.806 C 489.978 560.808, 451.903 560.721, 378.694 567.546" fill="none" stroke="#261b14" stroke-opacity="1" stroke-width="5.70679" stroke-linecap="round" />
<path d="M 889.739 559.533 C 833.269 565.658, 777.163 569.743, 721.421 571.789" fill="none" stroke="#bb8479" stroke-opacity="1" stroke-width="16" stroke-linecap="round" />
<path d="M 406.267 474.003 C 408.572 496.399, 432.629 502.125, 478.439 491.181" fill="none" stroke="#b29c79" stroke-opacity="1" stroke-width="4.23078" stroke-linecap="round" />
<path d="M 449.451 441.575 C 466.311 452.523, 482.298 445.66, 497.414 420.986" fill="none" stroke="#1c1b15" stroke-opacity="1" stroke-width="14.628" stroke-linecap="round" />
<path d="M 679.135 208.63 C 666.4 197.156, 664.83 188.15, 674.425 181.611" fill="none" stroke="#4a535f" stroke-opacity="1" stroke-width="8.85966" stroke-linecap="round" />
<path d="M 912.897 64.4387 C 933.196 15.3882, 975.231 5.99782, 1039 36.2675" fill="none" stroke="#4c77c2" stroke-opacity="1" stroke-width="16" stroke-linecap="round" />
<path d="M 296.685 368.67 C 289.776 372.008, 273.525 396.072, 247.932 440.862" fill="none" stroke="#373b2d" stroke-opacity="1" stroke-width="4.16153" stroke-linecap="round" />
<path d="M 522.597 454.017 C 510.97 457.819, 504.961 455.071, 504.569 445.774" fill="none" stroke="#787a75" stroke-opacity="1" stroke-width="4.62047" stroke-linecap="round" />
<path d="M 868.445 499.109 C 884.261 507.662, 892.362 502.921, 892.748 484.887" fill="none" stroke="#645f5a" stroke-opacity="1" stroke-width="6.2379" stroke-linecap="round" />
<path d="M 931.437 269.884 C 983.951 242.99, 1013.08 233.844, 1018.82 242.447" fill="none" stroke="#76a7e3" stroke-opacity="1" stroke-width="13.3917" stroke-linecap="round" />
<path d="M 278.226 551.56 C 277.405 519.988, 274.658 477.507, 269.985 424.118" fill="none" stroke="#625343" stroke-opacity="1" stroke-width="3.61717" stroke-linecap="round" />
<path d="M 126.05 417.924 C 115.461 374.366, 114.759 343.881, 123.945 326.47" fill="none" stroke="#575e52" stroke-opacity="1" stroke-width="4.08097" stroke-linecap="round" />
<path d="M 758.309 450.581 C 803.103 485.304, 837.387 476.359, 861.16 423.745" fill="none" stroke="#171b13" stroke-opacity="1" stroke-width="15.9229" stroke-linecap="round" />
<path d="M 369.678 459.658 C 352.764 473.338, 339.924 473.523, 331.156 460.215" fill="none" stroke="#ddd3c0" stroke-opacity="1" stroke-width="4.40147" stroke-linecap="round" />
<path d="M 608.296 442.534 C 611.044 439.104, 611.818 435.546, 610.618 431.859" fill="none" stroke="#606760" stroke-opacity="1" stroke-width="9.55367" stroke-linecap="round" />
<path d="M 580.881 500.491 C 589.676 497.251, 590.646 487.446, 583.79 471.073" fill="none" stroke="#a49c7f" stroke-opacity="1" stroke-width="3.58062" stroke-linecap="round" />
<path d="M 824.311 481.323 C 831.869 484.314, 835.26 481.593, 834.483 473.16" fill="none" stroke="#5d5856" stroke-opacity="1" stroke-width="7.97308" stroke-linecap="round" />
<path d="M 258.668 441.152 C 265.831 421.52, 264.889 405.749, 255.841 393.838" fill="none" stroke="#20221a" stroke-opacity="1" stroke-width="11.3651" stroke-linecap="round" />
<path d="M 751.186 500.798 C 740.982 500.357, 725.341 500.434, 704.262 501.029" fill="none" stroke="#9f9a8b" stroke-opacity="1" stroke-width="2.29378" stroke-linecap="round" />
<path d="M 127.758 507.175 C 122.554 467.238, 94.0959 456.529, 42.3838 475.05" fill="none" stroke="#514530" stroke-opacity="1" stroke-width="5.9405" stroke-linecap="round" />
<path d="M 964.735 492.826 C 966.072 493.038, 976.947 493.753, 997.361 494.972" fill="none" stroke="#424246" stroke-opacity="1" stroke-width="3.1427" stroke-linecap="round" />
<path d="M 464.82 465.593 C 448.48 457.921, 434.825 465.032, 423.856 486.926" fill="none" stroke="#46453a" stroke-opacity="1" stroke-width="8.78165" stroke-linecap="round" />
<path d="M 679.289 460.571 C 724.505 414.593, 751.379 393.082, 759.911 396.039" fill="none" stroke="#353933" stroke-opacity="1" stroke-width="13.4671" stroke-linecap="round" />
<path d="M 525.885 491.023 C 523.38 485.582, 520.588 479.425, 517.509 472.553" fill="none" stroke="#c6b1a1" stroke-opacity="1" stroke-width="4.01599" stroke-linecap="round" />
<path d="M 51.8425 516.466 C 55.5675 527.806, 60.0055 552.651, 65.1565 591" fill="none" stroke="#252316" stroke-opacity="1" stroke-width="6.61714" stroke-linecap="round" />
<path d="M 58.2798 310.957 C 9.98242 311.255, -4.41271 287.847, 15.0944 240.733" fill="none" stroke="#41515d" stroke-opacity="1" stroke-width="2.98829" stroke-linecap="round" />
<path d="M 680.847 378.248 C 674.317 364.839, 678.477 356.002, 693.328 351.737" fill="none" stroke="#c4ccd3" stroke-opacity="1" stroke-width="14.9539" stroke-linecap="round" />
<path d="M 918.102 189.42 C 985.881 197.773, 1020.39 188.212, 1021.63 160.737" fill="none" stroke="#6495da" stroke-opacity="1" stroke-width="16" stroke-linecap="round" />
<path d="M 61.0939 506.539 C 39.9604 508.364, 17.4034 508.122, -6.57698 505.812" fill="none" stroke="#c3ae8f" stroke-opacity="1" stroke-width="2.26167" stroke-linecap="round" />
<path d="M 348.622 425.941 C 346.294 440.972, 350.739 449.342, 361.956 451.05" fill="none" stroke="#efe8d5" stroke-opacity="1" stroke-width="3.74158" stroke-linecap="round" />
<path d="M 210.097 550.585 C 235.793 542.045, 254.594 519.131, 266.501 481.842" fill="none" stroke="#2c2219" stroke-opacity="1" stroke-width="10.0693" stroke-linecap="round" />
<path d="M 561.551 504.408 C 553.786 498.886, 530.272 494.156, 491.007 490.216" fill="none" stroke="#545049" stroke-opacity="1" stroke-width="2.9391" stroke-linecap="round" />
<path d="M 645.053 464.568 C 644.158 444.248, 649.606 426.766, 661.395 412.12" fill="none" stroke="#151613" stroke-opacity="1" stroke-width="6.00268" stroke-linecap="round" />
<path d="M 806.993 530.236 C 781.101 548.31, 724.53 547.616, 637.279 528.154" fill="none" stroke="#ad8174" stroke-opacity="1" stroke-width="9.46651" stroke-linecap="round" />
<path d="M 904.143 505.603 C 864.775 508.441, 838.772 506.65, 826.135 500.23" fill="none" stroke="#292828" stroke-opacity="1" stroke-width="4.38095" stroke-linecap="round" />
<path d="M 913.047 288.419 C 920.232 339.686, 956.156 352.075, 1020.82 325.586" fill="none" stroke="#95beeb" stroke-opacity="1" stroke-width="8.21541" stroke-linecap="round" />
<path d="M 986.487 457.16 C 975.823 446.727, 971.242 431.385, 972.742 411.134" fill="none" stroke="#575641" stroke-opacity="1" stroke-width="12.9596" stroke-linecap="round" />
<path d="M 850.959 254.601 C 843.053 239.434, 847.221 227.828, 863.464 219.785" fill="none" stroke="#11131e" stroke-opacity="1" stroke-width="7.23363" stroke-linecap="round" />
<path d="M 693.064 397.939 C 696.233 400.158, 704.378 402.46, 717.499 404.844" fill="none" stroke="#8d989d" stroke-opacity="1" stroke-width="3.82889" stroke-linecap="round" />
<path d="M 317.927 391.048 C 345.067 387.739, 374.284 391.756, 405.578 403.098" fill="none" stroke="#333933" stroke-opacity="1" stroke-width="3.14501" stroke-linecap="round" />
<path d="M 0.592478 257.518 C -10.4692 194.984, 28.7799 171.481, 118.34 187.007" fill="none" stroke="#5986cd" stroke-opacity="1" stroke-width="16" stroke-linecap="round" />
<path d="M 149.438 566.385 C 156.668 571.687, 166.33 573.368, 178.422 571.427" fill="none" stroke="#a89c7b" stroke-opacity="1" stroke-width="12.2936" stroke-linecap="round" />
<path d="M 230.666 240.538 C 478.789 228.471, 616.21 225.41, 642.928 231.358" fill="none" stroke="#5990d4" stroke-opacity="1" stroke-width="16" stroke-linecap="round" />
<path d="M 127.716 395.181 C 131.418 375.912, 128.978 365.028, 120.396 362.528" fill="none" stroke="#7792a5" stroke-opacity="1" stroke-width="4.43329" stroke-linecap="round" />
<path d="M 805.541 405.682 C 850.403 396.408, 878.019 394.237, 888.386 399.166" fill="none" stroke="#58615d" stroke-opacity="1" stroke-width="4.49017" stroke-linecap="round" />
<path d="M 938.961 498.92 C 942.435 494.859, 942.01 491.405, 937.686 488.56" fill="none" stroke="#9b9a98" stroke-opacity="1" stroke-width="4.75786" stroke-linecap="round" />
<path d="M 934.653 255.701 C 918.138 257.221, 910.206 252.379, 910.858 241.174" fill="none" stroke="#101017" stroke-opacity="1" stroke-width="6.08861" stroke-linecap="round" />
<path d="M 765.187 517.659 C 718.443 519.877, 669.308 522.787, 617.782 526.39" fill="none" stroke="#8c8675" stroke-opacity="1" stroke-width="8.35864" stroke-linecap="round" />
<path d="M 110.369 487.691 C 107.806 486.106, 105.056 489.284, 102.12 497.225" fill="none" stroke="#caad7c" stroke-opacity="1" stroke-width="4.13512" stroke-linecap="round" />
<path d="M 84.3003 486.352 C 66.7845 455.795, 40.9464 415.42, 6.78604 365.228" fill="none" stroke="#393a2c" stroke-opacity="1" stroke-width="6.4517" stroke-linecap="round" />
<path d="M 1024.45 405.741 C 1034.15 410.379, 1033.39 418.895, 1022.18 431.289" fill="none" stroke="#7a868d" stroke-opacity="1" stroke-width="6.27046" stroke-linecap="round" />
<path d="M 52.4164 244.012 C 63.5642 241.959, 78.4829 240.592, 97.1726 239.91" fill="none" stroke="#5f747f" stroke-opacity="1" stroke-width="9.98757" stroke-linecap="round" />
<path d="M 242.625 493.029 C 250.716 465.81, 236.781 451.235, 200.818 449.305" fill="none" stroke="#494531" stroke-opacity="1" stroke-width="8.94458" stroke-linecap="round" />
<path d="M 163.278 264.496 C 158.949 280.209, 157.734 305.703, 159.633 340.977" fill="none" stroke="#49595e" stroke-opacity="1" stroke-width="3.35271" stroke-linecap="round" />
<path d="M 173.678 466.64 C 175.956 456.208, 176.528 450.335, 175.395 449.021" fill="none" stroke="#e3d8c3" stroke-opacity="1" stroke-width="16" stroke-linecap="round" />
<path d="M 687.849 209.66 C 688.851 217.689, 687.762 223.544, 684.583 227.227" fill="none" stroke="#b3bfcd" stroke-opacity="1" stroke-width="4.8395" stroke-linecap="round" />
<path d="M 1028.55 487.648 C 968.167 467.415, 935.541 468.885, 930.672 492.059" fill="none" stroke="#262620" stroke-opacity="1" stroke-width="8.01495" stroke-linecap="round" />
<path d="M 47.4109 384.878 C 56.4302 379.651, 63.6292 363.614, 69.0079 336.766" fill="none" stroke="#67808e" stroke-opacity="1" stroke-width="2.9335" stroke-linecap="round" />
<path d="M 109.698 500.096 C 114.361 487.816, 114.529 480.961, 110.204 479.531" fill="none" stroke="#cfbb90" stroke-opacity="1" stroke-width="3.32755" stroke-linecap="round" />
<path d="M 234.203 511.474 C 234.177 507.434, 231.241 506.283, 225.395 508.02" fill="none" stroke="#110f0e" stroke-opacity="1" stroke-width="6.7889" stroke-linecap="round" />
<path d="M 817.747 493.212 C 834.832 495.764, 843.677 496.105, 844.283 494.234" fill="none" stroke="#9a9997" stroke-opacity="1" stroke-width="6.61368" stroke-linecap="round" />
<path d="M 316.012 531.941 C 294.671 543.621, 285.828 560.472, 289.482 582.494" fill="none" stroke="#f8eece" stroke-opacity="1" stroke-width="14.246" stroke-linecap="round" />
<path d="M 169.305 311.21 C 149.074 266.509, 131.473 246.721, 116.505 251.846" fill="none" stroke="#3d4436" stroke-opacity="1" stroke-width="8.5936" stroke-linecap="round" />
<path d="M 361.033 408.542 C 372.497 402.206, 379.083 406.276, 380.79 420.753" fill="none" stroke="#2b2a1c" stroke-opacity="1" stroke-width="8.16498" stroke-linecap="round" />
<path d="M -13.3391 445.942 C 17.1445 411.292, 31.0031 382.272, 28.2366 358.884" fill="none" stroke="#4b4f3b" stroke-opacity="1" stroke-width="4.75858" stroke-linecap="round" />
<path d="M 187.884 509.449 C 178.689 518.111, 167.786 525.683, 155.174 532.164" fill="none" stroke="#d7ccb0" stroke-opacity="1" stroke-width="3.69085" stroke-linecap="round" />
<path d="M 727.416 488.225 C 715.999 443.241, 733.424 413.357, 779.69 398.571" fill="none" stroke="#20211c" stroke-opacity="1" stroke-width="7.12377" stroke-linecap="round" />
<path d="M 77.8796 337.035 C 81.7696 347.937, 78.7103 357.694, 68.7017 366.307" fill="none" stroke="#42565d" stroke-opacity="1" stroke-width="3.59856" stroke-linecap="round" />
<path d="M 569.056 537.432 C 598.409 537.32, 613.124 533.533, 613.2 526.071" fill="none" stroke="#715651" stroke-opacity="1" stroke-width="5.91125" stroke-linecap="round" />
<path d="M 46.2725 479.484 C 68.438 463.804, 87.2582 450.469, 102.733 439.479" fill="none" stroke="#403325" stroke-opacity="1" stroke-width="7.70284" stroke-linecap="round" />
<path d="M 668.988 320.501 C 669.002 330.29, 675.201 334.784, 687.586 333.983" fill="none" stroke="#5c646f" stroke-opacity="1" stroke-width="4.84922" stroke-linecap="round" />
<path d="M 688.448 164.374 C 810.399 164.178, 871.325 143.154, 871.224 101.302" fill="none" stroke="#5184cd" stroke-opacity="1" stroke-width="16" stroke-linecap="round" />
<path d="M 315.104 440.819 C 318.171 447.772, 320.77 454.442, 322.9 460.829" fill="none" stroke="#ece4d2" stroke-opacity="1" stroke-width="5.90612" stroke-linecap="round" />
<path d="M 24.3945 420.52 C 29.7667 403.577, 55.3341 384.34, 101.097 362.808" fill="none" stroke="#282c1f" stroke-opacity="1" stroke-width="6.82082" stroke-linecap="round" />
<path d="M 165.584 259.57 C 347.558 296.258, 504.152 298.596, 635.366 266.587" fill="none" stroke="#679edd" stroke-opacity="1" stroke-width="14.5045" stroke-linecap="round" />
<path d="M 417.794 444.635 C 413.053 424.468, 409.298 412.127, 406.528 407.611" fill="none" stroke="#767357" stroke-opacity="1" stroke-width="5.14182" stroke-linecap="round" />
<path d="M 675.369 441.203 C 654.508 435.318, 637.544 430.767, 624.478 427.55" fill="none" stroke="#151612" stroke-opacity="1" stroke-width="16" stroke-linecap="round" />
<path d="M 916.101 382.79 C 951.437 392.585, 979.627 395.394, 1000.67 391.217" fill="none" stroke="#a5b5c9" stroke-opacity="1" stroke-width="4.7203" stroke-linecap="round" />
<path d="M 148.546 352.761 C 162.246 391.757, 167.936 419.915, 165.617 437.234" fill="none" stroke="#4e503d" stroke-opacity="1" stroke-width="1.80433" stroke-linecap="round" />
<path d="M -16 103.007 C 37.6901 169.363, 329.434 173.043, 859.231 114.048" fill="none" stroke="#4b7cc6" stroke-opacity="1" stroke-width="16" stroke-linecap="round" />
<path d="M 266.523 576.75 C 265.05 555.839, 255.438 550.238, 237.687 559.948" fill="none" stroke="#1b1512" stroke-opacity="1" stroke-width="15.8134" stroke-linecap="round" />
<path d="M 205.782 566.914 C 216.77 566.741, 227.785 566.116, 238.829 565.037" fill="none" stroke="#796a58" stroke-opacity="1" stroke-width="2.01599" stroke-linecap="round" />
<path d="M 593.185 383.786 C 580.582 450.813, 573.817 492.9, 572.89 510.049" fill="none" stroke="#333325" stroke-opacity="1" stroke-width="3.29613" stroke-linecap="round" />
<path d="M 100.234 268.028 C 123.144 267.802, 129.317 279.581, 118.752 303.366" fill="none" stroke="#6083b1" stroke-opacity="1" stroke-width="5.55446" stroke-linecap="round" />
<path d="M 256.756 455.934 C 267.648 454.57, 271.661 447.768, 268.793 435.528" fill="none" stroke="#625b4e" stroke-opacity="1" stroke-width="5.6299" stroke-linecap="round" />
<path d="M 680.232 196.794 C 677.749 195.227, 677.424 192.543, 679.257 188.741" fill="none" stroke="#a8b6c6" stroke-opacity="1" stroke-width="6.55477" stroke-linecap="round" />
<path d="M 393.164 560.075 C 405.798 559.256, 424.005 558.416, 447.786 557.554" fill="none" stroke="#957f64" stroke-opacity="1" stroke-width="2.14606" stroke-linecap="round" />
<path d="M 802.589 314.335 C 791.286 346.562, 761.771 365.535, 714.046 371.255" fill="none" stroke="#95c1e9" stroke-opacity="1" stroke-width="16" stroke-linecap="round" />
<path d="M 385.466 496.094 C 371.867 495.109, 364.875 494.362, 364.489 493.856" fill="none" stroke="#baa888" stroke-opacity="1" stroke-width="3.69986" stroke-linecap="round" />
<path d="M 35.5415 282.296 C 25.343 281.404, 21.7284 288.456, 24.6976 303.45" fill="none" stroke="#5675a0" stroke-opacity="1" stroke-width="6.7847" stroke-linecap="round" />
<path d="M 119.305 490.204 C 117.715 499.255, 115.684 506.213, 113.211 511.079" fill="none" stroke="#514c2e" stroke-opacity="1" stroke-width="8.13401" stroke-linecap="round" />
<path d="M 96.5374 564.216 C 87.7283 567.643, 81.578 567.344, 78.0867 563.32" fill="none" stroke="#635136" stroke-opacity="1" stroke-width="8.08964" stroke-linecap="round" />
<path d="M 92.6762 398.02 C 84.5173 374.255, 88.6588 350.895, 105.1 327.94" fill="none" stroke="#414d4f" stroke-opacity="1" stroke-width="1.94576" stroke-linecap="round" />
<path d="M 875.498 475.198 C 856.446 462.013, 842.909 443.45, 834.886 419.509" fill="none" stroke="#131511" stroke-opacity="1" stroke-width="11.1777" stroke-linecap="round" />
<path d="M 72.255 512.107 C 64.6591 511.468, 60.0789 514.539, 58.5142 521.321" fill="none" stroke="#b49e78" stroke-opacity="1" stroke-width="3.43496" stroke-linecap="round" />
<path d="M 311.867 570.738 C 334.213 552.144, 349.022 554.821, 356.292 578.767" fill="none" stroke="#231b15" stroke-opacity="1" stroke-width="5.64551" stroke-linecap="round" />
<path d="M 910.842 90.0917 C 941.851 35.7769, 977.791 21.56, 1018.66 47.4408" fill="none" stroke="#4e7bc5" stroke-opacity="1" stroke-width="16" stroke-linecap="round" />
<path d="M 337.587 410.69 C 320.655 413.425, 299.898 401.343, 275.317 374.445" fill="none" stroke="#4c4e39" stroke-opacity="1" stroke-width="5.34091" stroke-linecap="round" />
<path d="M 669.644 387.19 C 663.49 338.658, 661.988 309.457, 665.14 299.588" fill="none" stroke="#cfd8df" stroke-opacity="1" stroke-width="5.8021" stroke-linecap="round" />
<path d="M -0.832888 323.027 C 5.14197 321.572, 15.494 322.189, 30.2233 324.879" fill="none" stroke="#425775" stroke-opacity="1" stroke-width="2.19081" stroke-linecap="round" />
<path d="M 493.359 541.301 C 494.477 523.071, 495.646 510.119, 496.864 502.444" fill="none" stroke="#575b43" stroke-opacity="1" stroke-width="5.9209" stroke-linecap="round" />
<path d="M 396.041 480.978 C 394.804 494.878, 394.928 511.982, 396.412 532.288" fill="none" stroke="#c3ad87" stroke-opacity="1" stroke-width="3.33134" stroke-linecap="round" />
<path d="M 102.144 414.116 C 108.623 423.62, 111.124 435.024, 109.648 448.33" fill="none" stroke="#d9ccb4" stroke-opacity="1" stroke-width="5.40346" stroke-linecap="round" />
<path d="M 851.834 479.542 C 883.993 451.428, 882.347 429.579, 846.897 413.996" fill="none" stroke="#181b13" stroke-opacity="1" stroke-width="9.27447" stroke-linecap="round" />
<path d="M 257.607 488.248 C 247.886 491.051, 241.747 489.228, 239.19 482.781" fill="none" stroke="#675a4c" stroke-opacity="1" stroke-width="8.30155" stroke-linecap="round" />
<path d="M 156.673 458.41 C 156.489 467.338, 165.579 473.603, 183.945 477.206" fill="none" stroke="#dcd8cb" stroke-opacity="1" stroke-width="4.29745" stroke-linecap="round" />
<path d="M 998.901 466.264 C 989.553 464.817, 982.969 465.228, 979.148 467.496" fill="none" stroke="#d7d1c5" stroke-opacity="1" stroke-width="4.12605" stroke-linecap="round" />
<path d="M 65.809 281.73 C 70.0083 278.981, 82.2759 288.396, 102.612 309.975" fill="none" stroke="#5d7a9d" stroke-opacity="1" stroke-width="6.75709" stroke-linecap="round" />
<path d="M 882.505 494.58 C 889.658 496.169, 893.427 496.77, 893.814 496.38" fill="none" stroke="#93908f" stroke-opacity="1" stroke-width="3.0955" stroke-linecap="round" />
<path d="M 62.423 388.937 C 65.1992 387.528, 81.0721 396.131, 110.042 414.747" fill="none" stroke="#53513e" stroke-opacity="1" stroke-width="1.2773" stroke-linecap="round" />
<path d="M 469.53 381.568 C 536.95 383.723, 578.096 383.234, 592.968 380.102" fill="none" stroke="#5d7583" stroke-opacity="1" stroke-width="1.64771" stroke-linecap="round" />
<path d="M 563.321 378.038 C 579.106 408.151, 588.942 440.226, 592.829 474.265" fill="none" stroke="#2a2a21" stroke-opacity="1" stroke-width="3.11145" stroke-linecap="round" />
<path d="M 352.024 405.937 C 342.976 407.801, 335.798 407.514, 330.49 405.074" fill="none" stroke="#aeb4b3" stroke-opacity="1" stroke-width="3.42937" stroke-linecap="round" />
<path d="M 136.292 309.757 C 136.745 323.775, 141.536 330.071, 150.665 328.646" fill="none" stroke="#7aa6d8" stroke-opacity="1" stroke-width="12.323" stroke-linecap="round" />
<path d="M 507.228 513.097 C 513.124 514.696, 539.11 514.927, 585.186 513.792" fill="none" stroke="#51642f" stroke-opacity="1" stroke-width="16" stroke-linecap="round" />
<path d="M 721.655 500.01 C 716.476 495.123, 710.017 494.587, 702.279 498.403" fill="none" stroke="#a19d9c" stroke-opacity="1" stroke-width="2.65406" stroke-linecap="round" />
<path d="M -16 550.716 C -2.11932 552.433, 3.97953 549.353, 2.29654 541.474" fill="none" stroke="#b69b6d" stroke-opacity="1" stroke-width="10.5433" stroke-linecap="round" />
<path d="M 42.105 459.976 C 38.7827 448.904, 41.1766 443.678, 49.2864 444.297" fill="none" stroke="#e6dec6" stroke-opacity="1" stroke-width="3.77154" stroke-linecap="round" />
<path d="M 555.18 533.531 C 547.514 534.186, 531.929 534.909, 508.424 535.701" fill="none" stroke="#b2a795" stroke-opacity="1" stroke-width="10.532" stroke-linecap="round" />
<path d="M 482.048 482.469 C 482.358 494.301, 501.794 501.415, 540.357 503.813" fill="none" stroke="#b0a591" stroke-opacity="1" stroke-width="2.86227" stroke-linecap="round" />
<path d="M 947.22 510.159 C 947.551 479.046, 947.226 441.699, 946.246 398.118" fill="none" stroke="#2d2d20" stroke-opacity="1" stroke-width="3.85108" stroke-linecap="round" />
<path d="M 763.076 382.057 C 744.279 399.93, 733.831 408.632, 731.733 408.163" fill="none" stroke="#4e5a53" stroke-opacity="1" stroke-width="3.87069" stroke-linecap="round" />
<path d="M -12.7856 363.675 C 12.5328 381.805, 31.0015 387.401, 42.6206 380.462" fill="none" stroke="#404941" stroke-opacity="1" stroke-width="2.09464" stroke-linecap="round" />
<path d="M 712.591 302.071 C 783.259 284.822, 829.759 277.405, 852.091 279.82" fill="none" stroke="#75aae5" stroke-opacity="1" stroke-width="16" stroke-linecap="round" />
<path d="M 477.535 387.786 C 481.656 390.573, 475.253 407.656, 458.327 439.036" fill="none" stroke="#1f2319" stroke-opacity="1" stroke-width="5.66155" stroke-linecap="round" />
<path d="M 29.1183 314.705 C 61.0373 321.847, 68.2602 341.594, 50.7871 373.947" fill="none" stroke="#82abd9" stroke-opacity="1" stroke-width="7.40203" stroke-linecap="round" />
<path d="M 218.599 403.991 C 226.74 405.888, 236.166 406.337, 246.876 405.338" fill="none" stroke="#75774f" stroke-opacity="1" stroke-width="5.01571" stroke-linecap="round" />
<path d="M 19.8153 454.178 C 23.82 450.366, 27.7782 451.792, 31.69 458.456" fill="none" stroke="#473f30" stroke-opacity="1" stroke-width="4.58314" stroke-linecap="round" />
<path d="M 16.7785 300.067 C 11.4709 292.541, 13.6699 280.695, 23.3754 264.529" fill="none" stroke="#323d3b" stroke-opacity="1" stroke-width="9.29943" stroke-linecap="round" />
<path d="M 637.031 352.03 C 577.467 357.682, 546.841 370.157, 545.152 389.456" fill="none" stroke="#91bfe4" stroke-opacity="1" stroke-width="6.49952" stroke-linecap="round" />
<path d="M 209.678 382.048 C 239.677 388.342, 256.995 388.465, 261.635 382.417" fill="none" stroke="#90b7d7" stroke-opacity="1" stroke-width="4.36112" stroke-linecap="round" />
<path d="M 131.069 591 C 136.875 559.273, 128.955 537.679, 107.309 526.218" fill="none" stroke="#464128" stroke-opacity="1" stroke-width="2.02617" stroke-linecap="round" />
<path d="M 491.714 468.856 C 525.134 466.615, 548.096 468.129, 560.601 473.397" fill="none" stroke="#3a2b2a" stroke-opacity="1" stroke-width="4.20438" stroke-linecap="round" />
<path d="M 525.903 423.956 C 526.846 431.625, 526.829 437.038, 525.854 440.193" fill="none" stroke="#87929b" stroke-opacity="1" stroke-width="4.93302" stroke-linecap="round" />
<path d="M 828.449 524.803 C 862.64 534.184, 884.817 536.361, 894.981 531.332" fill="none" stroke="#4a433c" stroke-opacity="1" stroke-width="7.24886" stroke-linecap="round" />
<path d="M 661.508 291.99 C 670.753 295.253, 681.555 296.57, 693.912 295.939" fill="none" stroke="#d0d8e0" stroke-opacity="1" stroke-width="3.59146" stroke-linecap="round" />
<path d="M 697.177 512.3 C 699.01 512.164, 699.599 502.252, 698.941 482.563" fill="none" stroke="#525640" stroke-opacity="1" stroke-width="7.13414" stroke-linecap="round" />
<path d="M 145.78 335.569 C 124.522 304.078, 110.412 285.299, 103.449 279.235" fill="none" stroke="#739dce" stroke-opacity="1" stroke-width="5.74598" stroke-linecap="round" />
<path d="M 868.588 276.662 C 862.956 261.67, 867.577 251.829, 882.451 247.137" fill="none" stroke="#1c2234" stroke-opacity="1" stroke-width="2.16217" stroke-linecap="round" />
<path d="M 62.391 255.124 C 82.733 265.868, 101.473 283.506, 118.61 308.04" fill="none" stroke="#3e4d52" stroke-opacity="1" stroke-width="1.83265" stroke-linecap="round" />
<path d="M 390.005 488.758 C 360.809 489.718, 334.142 493.188, 310.003 499.166" fill="none" stroke="#362b20" stroke-opacity="1" stroke-width="4.96178" stroke-linecap="round" />
<path d="M 428.557 555.354 C 457.184 552.369, 472.261 552.562, 473.788 555.933" fill="none" stroke="#443527" stroke-opacity="1" stroke-width="3.12789" stroke-linecap="round" />
<path d="M 142.745 435.255 C 130.698 429.781, 123.58 432.812, 121.393 444.351" fill="none" stroke="#748392" stroke-opacity="1" stroke-width="8.96283" stroke-linecap="round" />
<path d="M 132.649 77.5004 C 383.447 115.721, 624.968 89.7817, 857.213 -0.318114" fill="none" stroke="#416fba" stroke-opacity="1" stroke-width="16" stroke-linecap="round" />
<path d="M 12.6351 293.462 C 2.01304 285.098, 2.06974 274.998, 12.8052 263.16" fill="none" stroke="#344040" stroke-opacity="1" stroke-width="2.78059" stroke-linecap="round" />
<path d="M 580.016 478.642 C 579.946 490.438, 581.624 497.904, 585.05 501.04" fill="none" stroke="#aba289" stroke-opacity="1" stroke-width="3.82922" stroke-linecap="round" />
<path d="M 27.2442 459.175 C 27.3652 411.822, 25.6711 385.512, 22.162 380.248" fill="none" stroke="#54523e" stroke-opacity="1" stroke-width="1.36149" stroke-linecap="round" />
<path d="M 124.583 417.481 C 126.419 398.434, 135.623 394.162, 152.197 404.666" fill="none" stroke="#53573f" stroke-opacity="1" stroke-width="10.346" stroke-linecap="round" />
<path d="M 784.984 425.387 C 793.659 413.987, 803.784 415.602, 815.358 430.233" fill="none" stroke="#3d412d" stroke-opacity="1" stroke-width="11.0316" stroke-linecap="round" />
<path d="M 748.266 482.107 C 738.243 480.275, 732.96 477.737, 732.416 474.492" fill="none" stroke="#b1a8a6" stroke-opacity="1" stroke-width="3.87228" stroke-linecap="round" />
<path d="M 362.915 394.831 C 336.891 394.086, 322.833 394.034, 320.743 394.674" fill="none" stroke="#707576" stroke-opacity="1" stroke-width="3.09278" stroke-linecap="round" />
<path d="M 1012.96 470.151 C 1028.58 461.966, 1037.26 457.761, 1039 457.535" fill="none" stroke="#d2cbbf" stroke-opacity="1" stroke-width="3.35444" stroke-linecap="round" />
<path d="M 295.407 326.109 C 303.878 348.738, 302.724 368.26, 291.947 384.676" fill="none" stroke="#80b0d7" stroke-opacity="1" stroke-width="3.28274" stroke-linecap="round" />
<path d="M 764.074 325.181 C 786.201 340.588, 787.342 364.881, 767.497 398.059" fill="none" stroke="#96b9d9" stroke-opacity="1" stroke-width="2.48231" stroke-linecap="round" />
<path d="M 382.227 553.576 C 405.591 557.796, 415.771 540.238, 412.767 500.904" fill="none" stroke="#856d51" stroke-opacity="1" stroke-width="2.32603" stroke-linecap="round" />
<path d="M 930.091 562.361 C 931.882 555.425, 962.981 549.831, 1023.39 545.578" fill="none" stroke="#b7867d" stroke-opacity="1" stroke-width="16" stroke-linecap="round" />
<path d="M 876.007 388.449 C 848.998 381.016, 826.668 383.171, 809.017 394.914" fill="none" stroke="#b3cbe1" stroke-opacity="1" stroke-width="11.5787" stroke-linecap="round" />
<path d="M 1022.51 398.923 C 982.558 400.046, 961.68 401.087, 959.878 402.045" fill="none" stroke="#8898ac" stroke-opacity="1" stroke-width="2.96327" stroke-linecap="round" />
<path d="M 386.929 482.014 C 382.947 458.162, 374.879 442.528, 362.724 435.112" fill="none" stroke="#6d5944" stroke-opacity="1" stroke-width="4.42957" stroke-linecap="round" />
<path d="M 9.87806 411.484 C 9.18713 423.402, 10.4456 438.028, 13.6536 455.362" fill="none" stroke="#979379" stroke-opacity="1" stroke-width="2.20434" stroke-linecap="round" />
<path d="M 1039 458.923 C 1011.12 461.596, 992.354 461.69, 982.706 459.203" fill="none" stroke="#746b62" stroke-opacity="1" stroke-width="3.16026" stroke-linecap="round" />
<path d="M 350.114 402.056 C 356.741 412.864, 378.751 424.398, 416.145 436.658" fill="none" stroke="#534b35" stroke-opacity="1" stroke-width="2.7303" stroke-linecap="round" />
<path d="M 962.081 497.82 C 958.416 492.364, 954.991 491.536, 951.808 495.336" fill="none" stroke="#b6b5b5" stroke-opacity="1" stroke-width="4.02145" stroke-linecap="round" />
<path d="M 236.241 481.053 C 236.52 492.476, 226.096 497.234, 204.97 495.327" fill="none" stroke="#99856b" stroke-opacity="1" stroke-width="3.64299" stroke-linecap="round" />
<path d="M 47.4916 372.418 C 44.5211 385.539, 41.043 405.921, 37.0574 433.562" fill="none" stroke="#252b22" stroke-opacity="1" stroke-width="2.05809" stroke-linecap="round" />
<path d="M 578.917 572.634 C 544.915 575.979, 524.029 579.107, 516.261 582.016" fill="none" stroke="#a98879" stroke-opacity="1" stroke-width="2.34067" stroke-linecap="round" />
<path d="M 973.62 429.272 C 983.2 427.476, 991.548 426.841, 998.663 427.368" fill="none" stroke="#767c7d" stroke-opacity="1" stroke-width="4.12296" stroke-linecap="round" />
<path d="M 149.568 433.67 C 164.237 413.63, 182.975 406.577, 205.782 412.511" fill="none" stroke="#2f2e1f" stroke-opacity="1" stroke-width="10.1128" stroke-linecap="round" />
<path d="M 206.389 373.422 C 192.206 375.824, 185.458 379.707, 186.144 385.071" fill="none" stroke="#657d94" stroke-opacity="1" stroke-width="2.84464" stroke-linecap="round" />
<path d="M 127.006 564.163 C 119 566.195, 110.983 567.311, 102.957 567.511" fill="none" stroke="#1b1610" stroke-opacity="1" stroke-width="9.189" stroke-linecap="round" />
<path d="M 509.302 408.91 C 518.77 407.676, 529.687 407.866, 542.051 409.481" fill="none" stroke="#c4cccb" stroke-opacity="1" stroke-width="2.21554" stroke-linecap="round" />
<path d="M 876.726 299.045 C 835.763 313.156, 781.795 326.014, 714.822 337.62" fill="none" stroke="#8bbae9" stroke-opacity="1" stroke-width="16" stroke-linecap="round" />
<path d="M 837.489 411.885 C 824.827 404.784, 811.484 401.661, 797.461 402.516" fill="none" stroke="#5e6563" stroke-opacity="1" stroke-width="6.14702" stroke-linecap="round" />
<path d="M 58.2386 511.322 C 51.7087 516.903, 33.4433 533.721, 3.44223 561.775" fill="none" stroke="#5e5232" stroke-opacity="1" stroke-width="3.64239" stroke-linecap="round" />
<path d="M 608.423 484.604 C 632.08 471.319, 644.438 476.863, 645.497 501.235" fill="none" stroke="#444632" stroke-opacity="1" stroke-width="3.20451" stroke-linecap="round" />
<path d="M 107.447 396.709 C 108.478 403.051, 111.476 404.843, 116.443 402.086" fill="none" stroke="#ded8c6" stroke-opacity="1" stroke-width="4.86438" stroke-linecap="round" />
<path d="M 114.635 449.509 C 116.152 429.211, 116.476 416.223, 115.606 410.546" fill="none" stroke="#cdc6b6" stroke-opacity="1" stroke-width="3.61369" stroke-linecap="round" />
<path d="M 832.837 243.31 C 830.741 248.542, 790.58 258.335, 712.352 272.689" fill="none" stroke="#6aa0e0" stroke-opacity="1" stroke-width="14.4013" stroke-linecap="round" />
<path d="M 954.659 488.402 C 973.387 488.777, 982.805 490.634, 982.913 493.974" fill="none" stroke="#8b898b" stroke-opacity="1" stroke-width="2.78406" stroke-linecap="round" />
<path d="M 144.674 544.559 C 154.224 551.077, 156.106 563.363, 150.32 581.417" fill="none" stroke="#6c6443" stroke-opacity="1" stroke-width="2.60724" stroke-linecap="round" />
<path d="M 170.733 497.4 C 173.026 495.316, 175.438 496.875, 177.971 502.075" fill="none" stroke="#ab9373" stroke-opacity="1" stroke-width="4.75632" stroke-linecap="round" />
<path d="M 454.382 485.981 C 449.059 485.094, 444.27 478.014, 440.013 464.741" fill="none" stroke="#535453" stroke-opacity="1" stroke-width="7.72954" stroke-linecap="round" />
<path d="M 301.752 436.473 C 302.413 421.305, 310.18 414.06, 325.054 414.737" fill="none" stroke="#323321" stroke-opacity="1" stroke-width="6.035" stroke-linecap="round" />
<path d="M 244.164 334.347 C 269.158 355.453, 281.643 370.212, 281.621 378.626" fill="none" stroke="#81b1dc" stroke-opacity="1" stroke-width="2.74033" stroke-linecap="round" />
<path d="M 96.5023 428.619 C 91.9758 432.121, 88.121 429.631, 84.9378 421.149" fill="none" stroke="#e7deca" stroke-opacity="1" stroke-width="7.13362" stroke-linecap="round" />
<path d="M 64.072 530.079 C 43.7496 552.609, 47.1192 568.317, 74.1808 577.202" fill="none" stroke="#1f1e13" stroke-opacity="1" stroke-width="13.9485" stroke-linecap="round" />
<path d="M 75.0907 363.797 C 86.8236 378.537, 93.2001 389.568, 94.2201 396.89" fill="none" stroke="#353930" stroke-opacity="1" stroke-width="2.29877" stroke-linecap="round" />
<path d="M 66.4986 494.512 C 69.8085 494.513, 73.0922 471.174, 76.3496 424.495" fill="none" stroke="#473e31" stroke-opacity="1" stroke-width="5.34951" stroke-linecap="round" />
<path d="M 908.347 233.164 C 921.42 231.489, 933.057 229.408, 943.26 226.92" fill="none" stroke="#686e78" stroke-opacity="1" stroke-width="3.85722" stroke-linecap="round" />
<path d="M 283.404 365.486 C 282.124 386.475, 290.154 395.394, 307.493 392.243" fill="none" stroke="#3f4233" stroke-opacity="1" stroke-width="2.28045" stroke-linecap="round" />
<path d="M 496.931 524.777 C 501.02 527.651, 506.025 528.277, 511.946 526.655" fill="none" stroke="#413f38" stroke-opacity="1" stroke-width="5.27237" stroke-linecap="round" />
<path d="M -0.969739 442.202 C 10.0469 460.816, 20.0828 464.429, 29.138 453.04" fill="none" stroke="#423928" stroke-opacity="1" stroke-width="5.91454" stroke-linecap="round" />
<path d="M 827.169 -16 C 677.216 14.69, 402.253 19.8869, 2.27904 -0.409336" fill="none" stroke="#3a63ad" stroke-opacity="1" stroke-width="16" stroke-linecap="round" />
<path d="M 383.19 571.299 C 407.109 569.059, 432.091 567.405, 458.137 566.336" fill="none" stroke="#5d5044" stroke-opacity="1" stroke-width="1.79374" stroke-linecap="round" />
<path d="M 688.898 202.675 C 683.594 204.434, 673.812 203.813, 659.55 200.815" fill="none" stroke="#3c4a5b" stroke-opacity="1" stroke-width="4.42522" stroke-linecap="round" />
<path d="M 909.67 356.549 C 907.552 278.193, 904.162 211.493, 899.501 156.448" fill="none" stroke="#3e4045" stroke-opacity="1" stroke-width="4.48413" stroke-linecap="round" />
<path d="M 108.602 366.832 C 112.403 361.685, 118.415 353.999, 126.637 343.775" fill="none" stroke="#89877a" stroke-opacity="1" stroke-width="1.96063" stroke-linecap="round" />
<path d="M 672.112 316.985 C 672.424 303.187, 680.54 299.048, 696.458 304.57" fill="none" stroke="#bdbfc2" stroke-opacity="1" stroke-width="4.1422" stroke-linecap="round" />
<path d="M 402.596 437.451 C 364.706 420.555, 344.04 409.812, 340.6 405.222" fill="none" stroke="#ece9dc" stroke-opacity="1" stroke-width="2.40367" stroke-linecap="round" />
<path d="M 392.05 417.897 C 394.656 416.178, 389.498 406.347, 376.576 388.405" fill="none" stroke="#2c2d1f" stroke-opacity="1" stroke-width="6.27505" stroke-linecap="round" />
<path d="M 344.537 447.953 C 345.013 454.821, 351.875 457.242, 365.124 455.217" fill="none" stroke="#43392c" stroke-opacity="1" stroke-width="4.39825" stroke-linecap="round" />
<path d="M 25.1861 566.185 C 32.7433 570.762, 32.7996 576.293, 25.355 582.78" fill="none" stroke="#785d45" stroke-opacity="1" stroke-width="4.32964" stroke-linecap="round" />
<path d="M 683.981 383.748 C 686.047 388.848, 680.552 394.556, 667.497 400.872" fill="none" stroke="#525941" stroke-opacity="1" stroke-width="2.34028" stroke-linecap="round" />
<path d="M 460.638 537.309 C 467.24 523.904, 479.034 518.113, 496.021 519.934" fill="none" stroke="#d2bd96" stroke-opacity="1" stroke-width="4.2147" stroke-linecap="round" />
<path d="M 633.241 350.1 C 359.714 354.7, 207.004 359.135, 175.111 363.405" fill="none" stroke="#87bae5" stroke-opacity="1" stroke-width="15.2631" stroke-linecap="round" />
<path d="M 955.214 240.026 C 952.684 220.328, 977.266 211.9, 1028.96 214.741" fill="none" stroke="#6d9ee0" stroke-opacity="1" stroke-width="16" stroke-linecap="round" />
<path d="M 789.641 501.129 C 790.683 499.316, 793.709 499.157, 798.717 500.653" fill="none" stroke="#8f8a7c" stroke-opacity="1" stroke-width="3.22818" stroke-linecap="round" />
<path d="M 698.576 284.805 C 681.401 277.444, 668.297 274.006, 659.263 274.492" fill="none" stroke="#40464e" stroke-opacity="1" stroke-width="2.87595" stroke-linecap="round" />
<path d="M 63.3927 32.0776 C 281.332 51.634, 534.548 39.7583, 823.043 -3.54949" fill="none" stroke="#3d67b2" stroke-opacity="1" stroke-width="16" stroke-linecap="round" />
<path d="M 79.0056 297.156 C 100.647 309.292, 102.898 328.809, 85.7576 355.708" fill="none" stroke="#78a2d1" stroke-opacity="1" stroke-width="3.64076" stroke-linecap="round" />
<path d="M 1025.64 369.052 C 982.19 368.288, 947.175 371.133, 920.595 377.587" fill="none" stroke="#b6cfea" stroke-opacity="1" stroke-width="14.7977" stroke-linecap="round" />
<path d="M 130.875 525.552 C 134.202 521.617, 140.065 515.447, 148.463 507.04" fill="none" stroke="#58522c" stroke-opacity="1" stroke-width="3.56298" stroke-linecap="round" />
<path d="M 680.077 259.167 C 677.431 264.57, 672.723 268.599, 665.954 271.255" fill="none" stroke="#c0c3c8" stroke-opacity="1" stroke-width="2.37987" stroke-linecap="round" />
<path d="M 1039 171.131 C 953.495 162.583, 912.299 176.091, 915.412 211.656" fill="none" stroke="#6192d8" stroke-opacity="1" stroke-width="16" stroke-linecap="round" />
<path d="M 184.879 421.795 C 177.374 400.833, 175.217 384.854, 178.41 373.86" fill="none" stroke="#5c5c3e" stroke-opacity="1" stroke-width="1.72639" stroke-linecap="round" />
<path d="M 154.662 256.195 C 159.114 267.035, 166.471 280.694, 176.734 297.173" fill="none" stroke="#5d768a" stroke-opacity="1" stroke-width="3.426" stroke-linecap="round" />
<path d="M 906.151 -9.25372 C 897.096 36.8238, 930.316 57.6087, 1005.81 53.1007" fill="none" stroke="#4c78c3" stroke-opacity="1" stroke-width="16" stroke-linecap="round" />
<path d="M 781.432 527.374 C 779.643 528.934, 777.408 528.419, 774.726 525.83" fill="none" stroke="#2b2625" stroke-opacity="1" stroke-width="7.96475" stroke-linecap="round" />
<path d="M 536.618 449.099 C 559.828 443.731, 582.051 445.977, 603.289 455.835" fill="none" stroke="#211e18" stroke-opacity="1" stroke-width="7.78129" stroke-linecap="round" />
<path d="M 31.3108 287.479 C 42.9031 292.701, 59.2345 303.667, 80.3049 320.377" fill="none" stroke="#48618a" stroke-opacity="1" stroke-width="1.40216" stroke-linecap="round" />
<path d="M 751.701 479.633 C 749.743 489.665, 743.563 491.829, 733.162 486.126" fill="none" stroke="#666054" stroke-opacity="1" stroke-width="5.96423" stroke-linecap="round" />
<path d="M 566.987 496.258 C 569.605 496.48, 570.699 497.203, 570.271 498.426" fill="none" stroke="#b6ae9e" stroke-opacity="1" stroke-width="3.91457" stroke-linecap="round" />
<path d="M 193.098 446.027 C 191.899 463.903, 210.275 473.921, 248.227 476.082" fill="none" stroke="#44422c" stroke-opacity="1" stroke-width="3.3637" stroke-linecap="round" />
<path d="M 365.128 471.158 C 370.86 460.084, 387.124 460.593, 413.92 472.684" fill="none" stroke="#504639" stroke-opacity="1" stroke-width="5.99329" stroke-linecap="round" />
<path d="M 1005.19 472.763 C 968.055 490.064, 940.383 489.025, 922.17 469.647" fill="none" stroke="#262622" stroke-opacity="1" stroke-width="5.00582" stroke-linecap="round" />
<path d="M 809.579 486.69 C 815.987 483.749, 826.838 481.175, 842.134 478.967" fill="none" stroke="#6a5f5a" stroke-opacity="1" stroke-width="4.75048" stroke-linecap="round" />
<path d="M 927.722 260.577 C 934.963 278.217, 965.237 273.308, 1018.54 245.851" fill="none" stroke="#7aaae4" stroke-opacity="1" stroke-width="2.72365" stroke-linecap="round" />
<path d="M 204.287 459.801 C 203.243 484.582, 199.495 503, 193.045 515.054" fill="none" stroke="#332e1f" stroke-opacity="1" stroke-width="7.19892" stroke-linecap="round" />
<path d="M 357.498 545.689 C 329.202 545.605, 313.141 550.548, 309.315 560.517" fill="none" stroke="#5d4830" stroke-opacity="1" stroke-width="1.72934" stroke-linecap="round" />
<path d="M 1019.64 473.83 C 1018.73 473.93, 1016.3 473.542, 1012.36 472.667" fill="none" stroke="#797663" stroke-opacity="1" stroke-width="5.4543" stroke-linecap="round" />
<path d="M 98.7174 422.158 C 99.0957 414.153, 98.1507 403.984, 95.8823 391.65" fill="none" stroke="#504c3a" stroke-opacity="1" stroke-width="2.06032" stroke-linecap="round" />
<path d="M 687.971 264.031 C 687.494 249.519, 693.601 242.938, 706.291 244.29" fill="none" stroke="#585e68" stroke-opacity="1" stroke-width="2.1261" stroke-linecap="round" />
<path d="M 917.831 405.044 C 921.962 401.436, 927.509 404.513, 934.471 414.273" fill="none" stroke="#6d6e62" stroke-opacity="1" stroke-width="3.18661" stroke-linecap="round" />
<path d="M 101.875 573.717 C 111.854 571.857, 130.904 576.73, 159.027 588.336" fill="none" stroke="#7d6f59" stroke-opacity="1" stroke-width="2.63927" stroke-linecap="round" />
<path d="M 976.617 463.848 C 972.113 419.885, 958.132 397.42, 934.675 396.453" fill="none" stroke="#4b4d2e" stroke-opacity="1" stroke-width="4.1603" stroke-linecap="round" />
<path d="M 485.35 392.124 C 471.103 412.081, 447.887 418.98, 415.703 412.821" fill="none" stroke="#2e352c" stroke-opacity="1" stroke-width="7.65377" stroke-linecap="round" />
<path d="M 106.822 325.222 C 105.307 307.814, 92.3857 287.829, 68.0597 265.268" fill="none" stroke="#5a7699" stroke-opacity="1" stroke-width="4.28856" stroke-linecap="round" />
<path d="M 843.421 495.904 C 845.867 499.843, 858.078 500.428, 880.054 497.658" fill="none" stroke="#312f32" stroke-opacity="1" stroke-width="2.71898" stroke-linecap="round" />
<path d="M 108.14 376.452 C 104.885 377.033, 99.9365 379.401, 93.2931 383.554" fill="none" stroke="#979b95" stroke-opacity="1" stroke-width="6.34" stroke-linecap="round" />
<path d="M 604.814 387.29 C 628.539 382.155, 639.617 373.843, 638.047 362.353" fill="none" stroke="#9fc4e0" stroke-opacity="1" stroke-width="7.83575" stroke-linecap="round" />
<path d="M -10.4405 162.325 C 322.106 203.181, 534.789 213.088, 627.608 192.046" fill="none" stroke="#5285ce" stroke-opacity="1" stroke-width="16" stroke-linecap="round" />
<path d="M 635.664 407.118 C 635.658 404.789, 631.894 403.107, 624.373 402.074" fill="none" stroke="#747e77" stroke-opacity="1" stroke-width="2.20827" stroke-linecap="round" />
<path d="M 122.884 341.662 C 90.7579 350.849, 70.307 366.024, 61.5308 387.187" fill="none" stroke="#42514e" stroke-opacity="1" stroke-width="2.63914" stroke-linecap="round" />
<path d="M 64.0807 405.881 C 63.6629 461.048, 146.675 487.541, 313.118 485.36" fill="none" stroke="#675b47" stroke-opacity="1" stroke-width="0.5" stroke-linecap="round" />
<path d="M 685.143 272.813 C 686.81 259.949, 686.178 251.525, 683.248 247.542" fill="none" stroke="#b9bec3" stroke-opacity="1" stroke-width="1.74361" stroke-linecap="round" />
<path d="M 301.408 385.253 C 307.838 380.722, 311.594 377.949, 312.676 376.936" fill="none" stroke="#6c8283" stroke-opacity="1" stroke-width="4.47861" stroke-linecap="round" />
<path d="M 5.76398 426.51 C 23.7048 398.996, 20.9164 379.525, -2.60119 368.098" fill="none" stroke="#52553d" stroke-opacity="1" stroke-width="3.07398" stroke-linecap="round" />
<path d="M 635.149 397.155 C 619.799 397.357, 592.03 394.364, 551.843 388.174" fill="none" stroke="#2e3731" stroke-opacity="1" stroke-width="4.07929" stroke-linecap="round" />
<path d="M 167.511 378.601 C 164.809 368.714, 159.637 359.659, 151.997 351.436" fill="none" stroke="#86a4ba" stroke-opacity="1" stroke-width="4.86591" stroke-linecap="round" />
<path d="M 864.831 494.72 C 864.125 491.425, 866.757 489.555, 872.727 489.11" fill="none" stroke="#bbb6bc" stroke-opacity="1" stroke-width="3.16326" stroke-linecap="round" />
<path d="M 37.9533 384.149 C 36.6878 395.985, 24.2908 407.159, 0.762462 417.67" fill="none" stroke="#60624d" stroke-opacity="1" stroke-width="1.63467" stroke-linecap="round" />
<path d="M 264.207 408.119 C 280.58 397.93, 279.641 387.582, 261.388 377.077" fill="none" stroke="#3f4438" stroke-opacity="1" stroke-width="3.61259" stroke-linecap="round" />
<path d="M 518.777 426.872 C 519.84 435.164, 520.682 439.491, 521.301 439.854" fill="none" stroke="#262b33" stroke-opacity="1" stroke-width="3.70489" stroke-linecap="round" />
<path d="M 200.957 489.835 C 213.245 465.66, 225.763 459.539, 238.512 471.472" fill="none" stroke="#444328" stroke-opacity="1" stroke-width="10.5127" stroke-linecap="round" />
<path d="M 680.566 470.699 C 665.161 466.926, 656.089 469.196, 653.349 477.508" fill="none" stroke="#292b29" stroke-opacity="1" stroke-width="6.36069" stroke-linecap="round" />
<path d="M 860.597 507.266 C 859.285 506.23, 854.076 506.471, 844.968 507.988" fill="none" stroke="#1b1b1e" stroke-opacity="1" stroke-width="7.39971" stroke-linecap="round" />
<path d="M 22.4476 288.599 C 16.1854 289.619, 11.0662 298.687, 7.09009 315.805" fill="none" stroke="#27333f" stroke-opacity="1" stroke-width="2.03349" stroke-linecap="round" />
<path d="M 216.711 521.303 C 218.545 519.125, 222.426 518.862, 228.354 520.512" fill="none" stroke="#a9936e" stroke-opacity="1" stroke-width="3.21938" stroke-linecap="round" />
<path d="M 147.286 564.095 C 157.046 546.476, 172.294 540.607, 193.03 546.488" fill="none" stroke="#a99d7c" stroke-opacity="1" stroke-width="1.34695" stroke-linecap="round" />
<path d="M 711.151 434.72 C 709.864 443.774, 709.892 450.704, 711.234 455.51" fill="none" stroke="#616a6b" stroke-opacity="1" stroke-width="6.33935" stroke-linecap="round" />
<path d="M 82.5736 236.007 C 61.2987 235.218, 51.9827 241.062, 54.6254 253.537" fill="none" stroke="#69829d" stroke-opacity="1" stroke-width="4.24769" stroke-linecap="round" />
<path d="M 107.777 414.503 C 101.488 388.361, 101.177 367.217, 106.843 351.07" fill="none" stroke="#605e51" stroke-opacity="1" stroke-width="1.01751" stroke-linecap="round" />
<path d="M 973.145 490.9 C 974.838 489.885, 979.375 490.142, 986.756 491.67" fill="none" stroke="#b4b3b9" stroke-opacity="1" stroke-width="2.26391" stroke-linecap="round" />
<path d="M 25.9891 417.871 C 28.6575 426.076, 30.4728 434.684, 31.4349 443.693" fill="none" stroke="#a19c8b" stroke-opacity="1" stroke-width="1.70123" stroke-linecap="round" />
<path d="M 506.218 471.821 C 506.341 476.641, 510.367 477.636, 518.295 474.808" fill="none" stroke="#c49caa" stroke-opacity="1" stroke-width="3.35577" stroke-linecap="round" />
<path d="M 411.663 422.857 C 412.005 422.663, 421.111 422.108, 438.983 421.194" fill="none" stroke="#808c96" stroke-opacity="1" stroke-width="4.00986" stroke-linecap="round" />
<path d="M 24.0577 464.087 C 28.1238 464.007, 36.5982 474.649, 49.4809 496.013" fill="none" stroke="#e7dcc3" stroke-opacity="1" stroke-width="4.03161" stroke-linecap="round" />
<path d="M 726.491 431.655 C 748.032 433.529, 759.037 433.41, 759.507 431.297" fill="none" stroke="#151511" stroke-opacity="1" stroke-width="12.7376" stroke-linecap="round" />
<path d="M 23.8225 205.984 C 67.4813 192.877, 113.852 209.253, 162.936 255.112" fill="none" stroke="#5e8dd5" stroke-opacity="1" stroke-width="14.8879" stroke-linecap="round" />
<path d="M 743.66 446.16 C 734.868 461.868, 731.263 474.329, 732.845 483.543" fill="none" stroke="#898880" stroke-opacity="1" stroke-width="3.41261" stroke-linecap="round" />
<path d="M 84.904 468.487 C 105.554 474.777, 133.761 485.754, 169.525 501.42" fill="none" stroke="#7f6f55" stroke-opacity="1" stroke-width="2.30779" stroke-linecap="round" />
<path d="M 749.975 385.288 C 720.068 352.532, 705.368 321.925, 705.876 293.465" fill="none" stroke="#91bbe2" stroke-opacity="1" stroke-width="2.95289" stroke-linecap="round" />
<path d="M 30.4365 309.201 C 30.8895 283.344, 34.5585 268.843, 41.4436 265.698" fill="none" stroke="#323e47" stroke-opacity="1" stroke-width="1.80868" stroke-linecap="round" />
<path d="M 188.153 315.139 C 350.622 334.062, 498.863 331.998, 632.876 308.949" fill="none" stroke="#76ade3" stroke-opacity="1" stroke-width="16" stroke-linecap="round" />
<path d="M 107.194 496.343 C 104.649 501.043, 101.096 518.781, 96.5336 549.558" fill="none" stroke="#2a2a17" stroke-opacity="1" stroke-width="3.08796" stroke-linecap="round" />
<path d="M 736.376 480.592 C 737.414 467.962, 735.763 456.506, 731.423 446.225" fill="none" stroke="#a29c8f" stroke-opacity="1" stroke-width="2.55874" stroke-linecap="round" />
<path d="M 133.006 246.714 C 100.279 242.845, 78.7195 244.415, 68.3277 251.424" fill="none" stroke="#6b7868" stroke-opacity="1" stroke-width="2.92256" stroke-linecap="round" />
<path d="M 436.824 395.932 C 449.636 396.77, 460.72 392.026, 470.077 381.7" fill="none" stroke="#586973" stroke-opacity="1" stroke-width="4.33498" stroke-linecap="round" />
<path d="M 672.385 360.954 C 669.968 363.729, 670.472 366.493, 673.899 369.243" fill="none" stroke="#989da3" stroke-opacity="1" stroke-width="2.86448" stroke-linecap="round" />
<path d="M 890.83 570.772 C 880.248 547.083, 807.523 540.879, 672.653 552.161" fill="none" stroke="#bd8578" stroke-opacity="1" stroke-width="15.6108" stroke-linecap="round" />
<path d="M 288.929 335.985 C 330.436 401.411, 378.314 398.502, 432.565 327.259" fill="none" stroke="#87b9e2" stroke-opacity="1" stroke-width="6.06778" stroke-linecap="round" />
<path d="M 349.901 370.381 C 347.82 394.146, 347.628 406.983, 349.323 408.893" fill="none" stroke="#87909d" stroke-opacity="1" stroke-width="1.51203" stroke-linecap="round" />
<path d="M 272.885 561.065 C 272.672 550.019, 273.632 540.145, 275.767 531.445" fill="none" stroke="#4e3e2b" stroke-opacity="1" stroke-width="4.84875" stroke-linecap="round" />
<path d="M 606.342 524.118 C 554.702 526.701, 524.22 526.89, 514.895 524.683" fill="none" stroke="#868070" stroke-opacity="1" stroke-width="5.32316" stroke-linecap="round" />
<path d="M 104.095 257.245 C 115.551 261.661, 124.072 264.543, 129.657 265.891" fill="none" stroke="#7e8986" stroke-opacity="1" stroke-width="4.06307" stroke-linecap="round" />
<path d="M 134.817 379.557 C 133.954 379.239, 131.557 372.284, 127.624 358.694" fill="none" stroke="#34434c" stroke-opacity="1" stroke-width="1.83091" stroke-linecap="round" />
<path d="M 480.258 554.902 C 486.48 555.465, 503.539 562.491, 531.434 575.98" fill="none" stroke="#bcad96" stroke-opacity="1" stroke-width="5.36551" stroke-linecap="round" />
<path d="M 155.81 318.475 C 133.065 305.882, 114.268 318.519, 99.4214 356.386" fill="none" stroke="#779eca" stroke-opacity="1" stroke-width="3.25228" stroke-linecap="round" />
<path d="M 15.5483 338.194 C 12.2323 337.626, 7.28893 337.173, 0.718238 336.836" fill="none" stroke="#4a617e" stroke-opacity="1" stroke-width="1.65437" stroke-linecap="round" />
<path d="M 33.3178 503.571 C 18.1883 474.681, 3.17161 465.548, -11.7324 476.169" fill="none" stroke="#a1917a" stroke-opacity="1" stroke-width="8.3475" stroke-linecap="round" />
<path d="M 704.004 245.945 C 680.626 241.161, 669.2 245.472, 669.724 258.877" fill="none" stroke="#4e5660" stroke-opacity="1" stroke-width="2.45165" stroke-linecap="round" />
<path d="M 435.653 486.39 C 437.801 485.199, 439.608 481.566, 441.073 475.491" fill="none" stroke="#928e83" stroke-opacity="1" stroke-width="4.5699" stroke-linecap="round" />
<path d="M 817.715 416.555 C 829.9 435.508, 836.673 454.587, 838.032 473.791" fill="none" stroke="#2b2f1f" stroke-opacity="1" stroke-width="5.60617" stroke-linecap="round" />
<path d="M 519.338 497.373 C 496.159 494.066, 474.447 497.567, 454.201 507.879" fill="none" stroke="#c4b193" stroke-opacity="1" stroke-width="3.97112" stroke-linecap="round" />
<path d="M -5.55686 227.917 C 33.9783 231.912, 65.4339 234.664, 88.8098 236.173" fill="none" stroke="#687781" stroke-opacity="1" stroke-width="1.64114" stroke-linecap="round" />
<path d="M 8.59562 431.931 C 4.57959 435.241, 4.01088 439.62, 6.8895 445.068" fill="none" stroke="#9e977f" stroke-opacity="1" stroke-width="4.38841" stroke-linecap="round" />
<path d="M 268.703 405.738 C 256.441 415.342, 249.485 424.398, 247.832 432.907" fill="none" stroke="#1f2019" stroke-opacity="1" stroke-width="3.88273" stroke-linecap="round" />
<path d="M 452.619 538.06 C 445.987 513.897, 427.762 508.889, 397.945 523.036" fill="none" stroke="#a38762" stroke-opacity="1" stroke-width="5.52207" stroke-linecap="round" />
<path d="M 1014.37 421.885 C 969.36 420.288, 939.122 420.895, 923.655 423.707" fill="none" stroke="#38352a" stroke-opacity="1" stroke-width="7.4938" stroke-linecap="round" />
<path d="M 168.94 316.56 C 147.804 289.349, 134.543 274.784, 129.16 272.866" fill="none" stroke="#44545c" stroke-opacity="1" stroke-width="3.65786" stroke-linecap="round" />
<path d="M 873.091 149.924 C 831.978 167.827, 771.374 178.42, 691.281 181.703" fill="none" stroke="#5488d0" stroke-opacity="1" stroke-width="16" stroke-linecap="round" />
<path d="M 224.898 513.127 C 239.607 520.595, 247.884 515.657, 249.728 498.314" fill="none" stroke="#211b16" stroke-opacity="1" stroke-width="5.75748" stroke-linecap="round" />
<path d="M 142.638 285.99 C 150.112 296.793, 148.62 314.044, 138.161 337.744" fill="none" stroke="#769bc3" stroke-opacity="1" stroke-width="3.28155" stroke-linecap="round" />
</g>
</svg>
